<svg xmlns="http://www.w3.org/2000/svg" xmlns:xlink="http://www.w3.org/1999/xlink" viewBox="0 0 944 1186.798"><defs><style>.a{fill:#fff;}.b{opacity:0.08;}.c{clip-path:url(#c);}.d{fill:#00ffba;}.e,.m{fill:#30425f;}.aa,.f,.n,.q,.t,.v,.w{fill:none;}.f,.t{stroke:#707070;}.f{opacity:0.21;}.g,.j{opacity:0.52;}.h,.k{font-size:10px;}.h,.j,.k{font-family:ProximaNova-Semibold, Proxima Nova;font-weight:600;}.i{fill:red;}.j{font-size:14px;}.k{fill:#50b90b;}.l{opacity:0.12;}.m,.p{fill-rule:evenodd;}.n{stroke:#30425f;}.o{clip-path:url(#f);}.q{stroke:#000;stroke-width:0.5px;}.r{fill:#00d277;}.s{fill:#ff0d0d;}.t{opacity:0.18;}.u{clip-path:url(#g);}.v,.w{stroke:#00ffba;}.v{stroke-width:5px;}.w{stroke-width:44px;}.x{opacity:0.26;}.y{fill:#00f9b5;}.z{stroke:none;}.ab{filter:url(#l);}.ac{filter:url(#j);}.ad{filter:url(#h);}.ae{filter:url(#d);}.af{filter:url(#a);}</style><filter id="a" x="224" y="0" width="720" height="1157" filterUnits="userSpaceOnUse"><feOffset input="SourceAlpha"/><feGaussianBlur stdDeviation="49.5" result="b"/><feFlood flood-opacity="0.102"/><feComposite operator="in" in2="b"/><feComposite in="SourceGraphic"/></filter><clipPath id="c"><path d="M337,812H38A38.043,38.043,0,0,1,0,774V38A38.043,38.043,0,0,1,38,0H78.263a6.812,6.812,0,0,1,5.23,5.17c.164.724.336,1.671.535,2.766.383,2.109.858,4.725,1.566,7.368.915,3.42,4.955,14.588,18.529,14.728,5.12.053,37.044.064,62.923.064,47.606,0,102.231-.038,104.786-.064,13.574-.14,17.614-11.308,18.529-14.728.709-2.649,1.185-5.268,1.567-7.373.2-1.1.371-2.042.534-2.761A6.592,6.592,0,0,1,297.647,0H337a38.043,38.043,0,0,1,38,38V774A38.043,38.043,0,0,1,337,812Z" transform="translate(1211 113)"/></clipPath><filter id="d" x="41.553" y="135" width="668.255" height="1051.798" filterUnits="userSpaceOnUse"><feOffset input="SourceAlpha"/><feGaussianBlur stdDeviation="49.5" result="e"/><feFlood flood-opacity="0.161"/><feComposite operator="in" in2="e"/><feComposite in="SourceGraphic"/></filter><clipPath id="f"><path d="M295.775,712.67H33.351A33.389,33.389,0,0,1,0,679.318V33.352A33.389,33.389,0,0,1,33.351,0H68.689a5.978,5.978,0,0,1,4.59,4.538c.144.635.3,1.466.47,2.428.336,1.851.753,4.147,1.375,6.466.8,3,4.349,12.8,16.263,12.926,4.494.046,32.512.056,55.225.056,41.782,0,89.725-.033,91.968-.056,11.914-.123,15.46-9.925,16.263-12.926.622-2.325,1.04-4.624,1.376-6.471.176-.966.326-1.792.469-2.423A5.786,5.786,0,0,1,261.236,0h34.539a33.39,33.39,0,0,1,33.351,33.352V679.318A33.389,33.389,0,0,1,295.775,712.67Z" transform="translate(0 0)"/></clipPath><clipPath id="g"><rect class="a" width="329.126" height="553.374"/></clipPath><filter id="h" x="355.862" y="757.447" width="168.048" height="168.048" filterUnits="userSpaceOnUse"><feOffset input="SourceAlpha"/><feGaussianBlur stdDeviation="17" result="i"/><feFlood flood-opacity="0.161"/><feComposite operator="in" in2="i"/><feComposite in="SourceGraphic"/></filter><filter id="j" x="0" y="673.103" width="539.836" height="352.19" filterUnits="userSpaceOnUse"><feOffset input="SourceAlpha"/><feGaussianBlur stdDeviation="49.5" result="k"/><feFlood flood-opacity="0.161"/><feComposite operator="in" in2="k"/><feComposite in="SourceGraphic"/></filter><filter id="l" x="229.67" y="690.58" width="317.813" height="317.813" filterUnits="userSpaceOnUse"><feOffset input="SourceAlpha"/><feGaussianBlur stdDeviation="49.5" result="m"/><feFlood flood-opacity="0.161"/><feComposite operator="in" in2="m"/><feComposite in="SourceGraphic"/></filter></defs><g transform="translate(7345.5 -1322.5)"><g transform="translate(-8242 -1495)"><g transform="translate(82 2877)"><g class="af" transform="matrix(1, 0, 0, 1, 814.5, -59.5)"><path class="a" d="M57,0H366a57,57,0,0,1,57,57V803a57,57,0,0,1-57,57H57A57,57,0,0,1,0,803V57A57,57,0,0,1,57,0Z" transform="translate(372.5 148.5)"/></g><g transform="translate(1609 276)"><path class="a" d="M0,0H3A2,2,0,0,1,5,2V94a2,2,0,0,1-2,2H0a0,0,0,0,1,0,0V0A0,0,0,0,1,0,0Z"/><path class="a" d="M0,0H3A2,2,0,0,1,5,2V94a2,2,0,0,1-2,2H0a0,0,0,0,1,0,0V0A0,0,0,0,1,0,0Z"/></g><g transform="translate(1753 -1254)"><path class="a" d="M2,0H5A0,0,0,0,1,5,0V60a0,0,0,0,1,0,0H2a2,2,0,0,1-2-2V2A2,2,0,0,1,2,0Z" transform="translate(-569 1510)"/><path class="a" d="M0,0H3A2,2,0,0,1,5,2V58a2,2,0,0,1-2,2H0a0,0,0,0,1,0,0V0A0,0,0,0,1,0,0Z" transform="translate(-564 1570) rotate(180)"/></g><g transform="translate(1753 -1254)"><path class="a" d="M2,0H5A0,0,0,0,1,5,0V60a0,0,0,0,1,0,0H2a2,2,0,0,1-2-2V2A2,2,0,0,1,2,0Z" transform="translate(-569 1588)"/><path class="a" d="M0,0H3A2,2,0,0,1,5,2V58a2,2,0,0,1-2,2H0a0,0,0,0,1,0,0V0A0,0,0,0,1,0,0Z" transform="translate(-564 1648) rotate(180)"/></g><g transform="translate(1753 -1254)"><path class="a" d="M1,0H5A0,0,0,0,1,5,0V32a0,0,0,0,1,0,0H1a1,1,0,0,1-1-1V1A1,1,0,0,1,1,0Z" transform="translate(-569 1447)"/><path class="a" d="M0,0H4A1,1,0,0,1,5,1V31a1,1,0,0,1-1,1H0a0,0,0,0,1,0,0V0A0,0,0,0,1,0,0Z" transform="translate(-564 1479) rotate(180)"/></g></g><ellipse class="b" cx="7.5" cy="7.5" rx="7.5" ry="7.5" transform="translate(1524 2991)"/><path class="b" d="M4,.5H59a3.5,3.5,0,0,1,0,7H4a3.5,3.5,0,0,1,0-7Z" transform="translate(1449 2995)"/><g transform="translate(-910 150)"><g class="c" transform="translate(992 2727)"><g transform="translate(-1230)"><rect class="a" width="375" height="812" transform="translate(2441 113)"/><g transform="translate(3)"><rect class="d" width="375" height="101" transform="translate(2438 113)"/><g transform="translate(-1)"><path class="e" d="M-50.67.216A5.485,5.485,0,0,0-45.846-2.5l-1.8-.9A3.588,3.588,0,0,1-50.67-1.656a4.123,4.123,0,0,1-4.14-4.338,4.1,4.1,0,0,1,4.14-4.338,3.549,3.549,0,0,1,3.024,1.746l1.782-.936A5.384,5.384,0,0,0-50.67-12.2a6.046,6.046,0,0,0-6.3,6.21A6.057,6.057,0,0,0-50.67.216Zm10.386,0A4.356,4.356,0,0,0-35.82-4.356,4.332,4.332,0,0,0-40.284-8.91a4.332,4.332,0,0,0-4.464,4.554A4.356,4.356,0,0,0-40.284.216Zm0-1.674a2.613,2.613,0,0,1-2.5-2.9,2.607,2.607,0,0,1,2.5-2.88,2.6,2.6,0,0,1,2.5,2.88C-37.782-2.808-38.664-1.458-40.284-1.458ZM-26.118,0V-6.12a2.506,2.506,0,0,0-2.808-2.79A4.146,4.146,0,0,0-32-7.524v-1.17h-1.89V0H-32V-6.084a2.962,2.962,0,0,1,2.232-1.152c1.062,0,1.764.432,1.764,1.8V0Zm6.768,0L-15.8-8.694H-17.82l-2.538,6.516L-22.9-8.694H-24.93L-21.384,0Zm8.766.216A5.143,5.143,0,0,0-7.056-1.062L-7.92-2.3a3.655,3.655,0,0,1-2.484.972,2.628,2.628,0,0,1-2.754-2.394h6.7v-.468c0-2.736-1.656-4.716-4.266-4.716a4.394,4.394,0,0,0-4.41,4.554A4.361,4.361,0,0,0-10.584.216Zm2.3-5.292h-4.9a2.379,2.379,0,0,1,2.43-2.286A2.34,2.34,0,0,1-8.28-5.076ZM-2.7,0V-5.922A2.968,2.968,0,0,1-.45-7.092a2.609,2.609,0,0,1,.576.054V-8.91A3.773,3.773,0,0,0-2.7-7.434v-1.26H-4.59V0ZM4.644.216c2.34,0,3.618-1.17,3.618-2.718,0-3.456-5.256-2.3-5.256-3.834,0-.612.612-1.08,1.6-1.08A3.545,3.545,0,0,1,7.182-6.372L7.974-7.7A4.967,4.967,0,0,0,4.608-8.91c-2.2,0-3.42,1.206-3.42,2.628,0,3.348,5.256,2.124,5.256,3.834,0,.684-.594,1.152-1.728,1.152A4.466,4.466,0,0,1,1.782-2.5L.918-1.152A5.268,5.268,0,0,0,4.644.216ZM17.37,0V-5.778c0-2.322-1.692-3.132-3.636-3.132a5.093,5.093,0,0,0-3.654,1.4l.792,1.314a3.481,3.481,0,0,1,2.574-1.116c1.188,0,2.034.612,2.034,1.62v1.3a3.634,3.634,0,0,0-2.826-1.116A2.789,2.789,0,0,0,9.648-2.664,2.894,2.894,0,0,0,12.654.216,3.66,3.66,0,0,0,15.48-.954V0ZM13.41-1.08a1.666,1.666,0,0,1-1.872-1.566A1.677,1.677,0,0,1,13.41-4.212a2.594,2.594,0,0,1,2.07.9V-1.98A2.594,2.594,0,0,1,13.41-1.08Zm9.036,1.3A2.56,2.56,0,0,0,24.21-.342l-.45-1.44a1.176,1.176,0,0,1-.828.324c-.54,0-.828-.45-.828-1.044V-7.056h1.764V-8.694H22.1V-11.07h-1.89v2.376h-1.44v1.638h1.44v5.022A2,2,0,0,0,22.446.216Zm4.068-9.972a1.168,1.168,0,0,0,1.17-1.17,1.168,1.168,0,0,0-1.17-1.17,1.168,1.168,0,0,0-1.17,1.17A1.168,1.168,0,0,0,26.514-9.756ZM27.45,0V-8.694H25.56V0Zm6.39.216A4.356,4.356,0,0,0,38.3-4.356,4.332,4.332,0,0,0,33.84-8.91a4.332,4.332,0,0,0-4.464,4.554A4.356,4.356,0,0,0,33.84.216Zm0-1.674a2.613,2.613,0,0,1-2.5-2.9,2.607,2.607,0,0,1,2.5-2.88,2.6,2.6,0,0,1,2.5,2.88C36.342-2.808,35.46-1.458,33.84-1.458ZM48.006,0V-6.12A2.506,2.506,0,0,0,45.2-8.91,4.146,4.146,0,0,0,42.12-7.524v-1.17H40.23V0h1.89V-6.084a2.962,2.962,0,0,1,2.232-1.152c1.062,0,1.764.432,1.764,1.8V0Zm5.436.216c2.34,0,3.618-1.17,3.618-2.718,0-3.456-5.256-2.3-5.256-3.834,0-.612.612-1.08,1.6-1.08A3.545,3.545,0,0,1,55.98-6.372L56.772-7.7A4.967,4.967,0,0,0,53.406-8.91c-2.2,0-3.42,1.206-3.42,2.628,0,3.348,5.256,2.124,5.256,3.834,0,.684-.594,1.152-1.728,1.152A4.466,4.466,0,0,1,50.58-2.5l-.864,1.35A5.268,5.268,0,0,0,53.442.216Z" transform="translate(2626 194)"/><path class="e" d="M2.077-23.306a.553.553,0,0,0-.16-.369l-.8-.8a.552.552,0,0,0-.369-.16.552.552,0,0,0-.369.16l-6.3,6.3-6.3-6.3a.552.552,0,0,0-.369-.16.522.522,0,0,0-.369.16l-.8.8a.553.553,0,0,0-.16.369.553.553,0,0,0,.16.369l7.471,7.476a.552.552,0,0,0,.369.16.552.552,0,0,0,.369-.16l7.471-7.476A.553.553,0,0,0,2.077-23.306Z" transform="translate(2471.923 208.637)"/><path class="e" d="M-.51-4.046h-.535v-.918h-.918V-5.5L-.854-6.609.6-5.156ZM3.7-10.93a.225.225,0,0,1-.01.316L.341-7.269a.225.225,0,0,1-.316.01.225.225,0,0,1,.01-.316l3.346-3.346A.225.225,0,0,1,3.7-10.93Zm.765,5.679a.3.3,0,0,0-.191-.277.3.3,0,0,0-.335.067l-.612.612a.3.3,0,0,0-.086.21v1.2A1.534,1.534,0,0,1,1.708-1.9H-6.246a1.534,1.534,0,0,1-1.53-1.53v-7.955a1.534,1.534,0,0,1,1.53-1.53H1.708a1.664,1.664,0,0,1,.43.057.288.288,0,0,0,.306-.076l.468-.468A.3.3,0,0,0,3-13.684a.312.312,0,0,0-.172-.22,2.675,2.675,0,0,0-1.119-.239H-6.246A2.754,2.754,0,0,0-9-11.389v7.955A2.754,2.754,0,0,0-6.246-.681H1.708A2.754,2.754,0,0,0,4.462-3.435Zm-.918-7.056L-2.881-5.882v2.754H-.127L6.3-9.554Zm4.245,1.262a.929.929,0,0,0,0-1.3L6.336-13.8a.929.929,0,0,0-1.3,0l-.88.88,2.754,2.754Z" transform="translate(2786 196.143)"/></g></g><line class="f" x2="338" transform="translate(2459.5 287.5)"/><line class="f" x2="338" transform="translate(2459.5 361.5)"/><line class="f" x2="338" transform="translate(2456.5 214.5)"/><path class="g" d="M-44.436,0l-2.3-3.668a2.628,2.628,0,0,0,2.226-2.744,2.839,2.839,0,0,0-3.066-2.926h-4.1V0h1.638V-3.486H-48.4L-46.34,0Zm-3.346-4.928h-2.254V-7.9h2.254a1.462,1.462,0,0,1,1.6,1.47A1.475,1.475,0,0,1-47.782-4.928ZM-36.876,0V-6.762h-1.47v4.746a2.239,2.239,0,0,1-1.722.882c-.84,0-1.372-.336-1.372-1.386V-6.762h-1.47v4.788A1.935,1.935,0,0,0-40.726.168,3.234,3.234,0,0,0-38.346-.9V0ZM-33.5-2.03V-4.718a2.222,2.222,0,0,1,1.75-.91,1.987,1.987,0,0,1,1.9,2.24,1.992,1.992,0,0,1-1.9,2.254A2.209,2.209,0,0,1-33.5-2.03Zm0,2.03V-.924A2.739,2.739,0,0,0-31.332.168c1.736,0,3.01-1.316,3.01-3.556,0-2.184-1.26-3.542-3.01-3.542A2.674,2.674,0,0,0-33.5-5.824V-9.338h-1.47V0ZM-26.1-7.588a.908.908,0,0,0,.91-.91.908.908,0,0,0-.91-.91.908.908,0,0,0-.91.91A.908.908,0,0,0-26.1-7.588ZM-25.368,0V-6.762h-1.47V0Zm8.232,0-2.856-3.7,2.8-3.066h-1.82L-21.994-3.5V-9.338h-1.47V0h1.47V-1.82l.952-.98L-18.984,0Zm6.314.168a2.887,2.887,0,0,0,3.15-3.136v-6.37H-9.31v6.356a1.573,1.573,0,0,1-1.638,1.694,2.078,2.078,0,0,1-1.6-.784l-.77,1.246A3.3,3.3,0,0,0-10.822.168Zm8.162,0A3.388,3.388,0,0,0,.812-3.388,3.369,3.369,0,0,0-2.66-6.93,3.369,3.369,0,0,0-6.132-3.388,3.388,3.388,0,0,0-2.66.168Zm0-1.3A2.032,2.032,0,0,1-4.606-3.388,2.027,2.027,0,0,1-2.66-5.628,2.019,2.019,0,0,1-.714-3.388,2.024,2.024,0,0,1-2.66-1.134ZM8.358,0V-4.788A1.929,1.929,0,0,0,6.174-6.93a3.192,3.192,0,0,0-2.38,1.078V-9.338H2.324V0h1.47V-4.732a2.256,2.256,0,0,1,1.736-.9c.826,0,1.358.308,1.358,1.372V0ZM16.31,0V-4.76a1.949,1.949,0,0,0-2.184-2.17,3.224,3.224,0,0,0-2.394,1.078v-.91h-1.47V0h1.47V-4.732a2.3,2.3,0,0,1,1.736-.9c.826,0,1.372.336,1.372,1.4V0Zm7.518,0V-4.494C23.828-6.3,22.512-6.93,21-6.93a3.961,3.961,0,0,0-2.842,1.092l.616,1.022a2.707,2.707,0,0,1,2-.868c.924,0,1.582.476,1.582,1.26v1.008a2.826,2.826,0,0,0-2.2-.868,2.169,2.169,0,0,0-2.338,2.212A2.251,2.251,0,0,0,20.16.168a2.847,2.847,0,0,0,2.2-.91V0Zm-3.08-.84a1.3,1.3,0,0,1-1.456-1.218,1.3,1.3,0,0,1,1.456-1.218,2.018,2.018,0,0,1,1.61.7V-1.54A2.018,2.018,0,0,1,20.748-.84ZM27.776.168a1.991,1.991,0,0,0,1.372-.434l-.35-1.12a.914.914,0,0,1-.644.252c-.42,0-.644-.35-.644-.812V-5.488h1.372V-6.762H27.51V-8.61H26.04v1.848H24.92v1.274h1.12v3.906A1.558,1.558,0,0,0,27.776.168ZM36.246,0V-4.788A1.929,1.929,0,0,0,34.062-6.93a3.192,3.192,0,0,0-2.38,1.078V-9.338h-1.47V0h1.47V-4.732a2.256,2.256,0,0,1,1.736-.9c.826,0,1.358.308,1.358,1.372V0Zm7.518,0V-4.494c0-1.806-1.316-2.436-2.828-2.436a3.961,3.961,0,0,0-2.842,1.092l.616,1.022a2.707,2.707,0,0,1,2-.868c.924,0,1.582.476,1.582,1.26v1.008a2.826,2.826,0,0,0-2.2-.868,2.169,2.169,0,0,0-2.338,2.212A2.251,2.251,0,0,0,40.1.168a2.847,2.847,0,0,0,2.2-.91V0Zm-3.08-.84a1.3,1.3,0,0,1-1.456-1.218,1.3,1.3,0,0,1,1.456-1.218,2.018,2.018,0,0,1,1.61.7V-1.54A2.018,2.018,0,0,1,40.684-.84ZM51.716,0V-4.76a1.949,1.949,0,0,0-2.184-2.17,3.224,3.224,0,0,0-2.394,1.078v-.91h-1.47V0h1.47V-4.732a2.3,2.3,0,0,1,1.736-.9c.826,0,1.372.336,1.372,1.4V0Z" transform="translate(2551 249)"/><text class="h" transform="translate(2524 262)"><tspan x="-26.175" y="0">It&apos;s OK boss</tspan></text><path class="g" d="M-19.365.12c1.55,0,2.52-.81,2.52-1.95A1.691,1.691,0,0,0-18.4-3.45a1.612,1.612,0,0,0,1.44-1.53c0-1.11-.96-1.79-2.4-1.79A3.093,3.093,0,0,0-21.8-5.72l.6.73a2.314,2.314,0,0,1,1.73-.74c.74,0,1.35.32,1.35.93s-.59.88-1.38.88c-.26,0-.65,0-.76-.01v1.06c.1-.01.48-.02.76-.02.96,0,1.48.29,1.48.95,0,.61-.51,1.02-1.39,1.02a2.468,2.468,0,0,1-1.84-.81l-.64.77A3.12,3.12,0,0,0-19.365.12ZM-6.145,0V-3.49a1.277,1.277,0,0,0-1.39-1.46,2.036,2.036,0,0,0-1.64.88,1.262,1.262,0,0,0-1.32-.88,2.139,2.139,0,0,0-1.58.77v-.65h-1.05V0h1.05V-3.38a1.483,1.483,0,0,1,1.12-.64c.57,0,.79.35.79.87V0h1.05V-3.38a1.438,1.438,0,0,1,1.12-.64c.57,0,.8.35.8.87V0Zm1.89-5.42a.649.649,0,0,0,.65-.65.649.649,0,0,0-.65-.65.649.649,0,0,0-.65.65A.649.649,0,0,0-4.255-5.42ZM-3.735,0V-4.83h-1.05V0Zm5.68,0V-3.4A1.392,1.392,0,0,0,.385-4.95a2.3,2.3,0,0,0-1.71.77v-.65h-1.05V0h1.05V-3.38a1.646,1.646,0,0,1,1.24-.64c.59,0,.98.24.98,1V0ZM9.9,0V-3.21c0-1.29-.94-1.74-2.02-1.74a2.829,2.829,0,0,0-2.03.78l.44.73a1.934,1.934,0,0,1,1.43-.62c.66,0,1.13.34,1.13.9v.72a2.019,2.019,0,0,0-1.57-.62,1.55,1.55,0,0,0-1.67,1.58A1.608,1.608,0,0,0,7.275.12a2.033,2.033,0,0,0,1.57-.65V0ZM7.7-.6a.926.926,0,0,1-1.04-.87A.932.932,0,0,1,7.7-2.34a1.441,1.441,0,0,1,1.15.5v.74A1.441,1.441,0,0,1,7.7-.6Zm5.53,2.56c1.18,0,2.48-.47,2.48-2.21V-4.83h-1.05v.67a1.9,1.9,0,0,0-1.55-.79c-1.25,0-2.14.91-2.14,2.48,0,1.59.91,2.48,2.14,2.48a1.942,1.942,0,0,0,1.55-.81v.55a1.279,1.279,0,0,1-1.43,1.35,1.906,1.906,0,0,1-1.54-.62l-.49.76A2.764,2.764,0,0,0,13.225,1.96Zm.19-2.89a1.369,1.369,0,0,1-1.37-1.54,1.377,1.377,0,0,1,1.37-1.55,1.6,1.6,0,0,1,1.24.64v1.81A1.6,1.6,0,0,1,13.415-.93ZM19.255.12a2.42,2.42,0,0,0,2.48-2.54,2.407,2.407,0,0,0-2.48-2.53,2.407,2.407,0,0,0-2.48,2.53A2.42,2.42,0,0,0,19.255.12Zm0-.93a1.452,1.452,0,0,1-1.39-1.61,1.448,1.448,0,0,1,1.39-1.6,1.442,1.442,0,0,1,1.39,1.6A1.446,1.446,0,0,1,19.255-.81Z" transform="translate(2716 254)"/><g transform="translate(7 -3)"><circle class="i" cx="10.026" cy="10.026" r="10.026" transform="translate(2770 243)"/><path class="a" d="M.851-1.848v-7.49H-.294L-2.45-7.16l.764.8,1.224-1.28v5.794Z" transform="translate(2780.471 258.755)"/></g><g transform="translate(17.238 -4)"><path class="i" d="M7.3,8.575H2a2,2,0,0,1-2-2V2A2,2,0,0,1,2,0h8.359a2,2,0,0,1,2,2V6.575a2,2,0,0,1-2,2h-.208v2.381Z" transform="translate(2737.069 247)"/><path class="i" d="M10.151,10.957h0L7.3,8.575H2a2,2,0,0,1-2-2V2A2,2,0,0,1,2,0H5.518V3.423a2,2,0,0,0,2,2h4.84V6.575a2,2,0,0,1-2,2h-.208v2.381Z" transform="translate(2730.762 250.941)"/></g><text class="j" transform="translate(2534 323)"><tspan x="-36.414" y="0">Raju Jangid</tspan></text><text class="k" transform="translate(2530 336)"><tspan x="-32.315" y="0">Raju Typing ....</tspan></text><path class="g" d="M-19.215.12a2.291,2.291,0,0,0,2.55-2.26,2.065,2.065,0,0,0-2.14-2.15,2.234,2.234,0,0,0-1.51.57V-5.64h3.2V-6.67h-4.37v3.72l.83.24a2.029,2.029,0,0,1,1.46-.57,1.188,1.188,0,0,1,1.34,1.18,1.225,1.225,0,0,1-1.37,1.18,2.257,2.257,0,0,1-1.79-.8l-.67.81A3.071,3.071,0,0,0-19.215.12ZM-6.015,0V-3.49a1.277,1.277,0,0,0-1.39-1.46,2.036,2.036,0,0,0-1.64.88,1.262,1.262,0,0,0-1.32-.88,2.139,2.139,0,0,0-1.58.77v-.65H-13V0h1.05V-3.38a1.483,1.483,0,0,1,1.12-.64c.57,0,.79.35.79.87V0h1.05V-3.38a1.438,1.438,0,0,1,1.12-.64c.57,0,.8.35.8.87V0Zm1.89-5.42a.649.649,0,0,0,.65-.65.649.649,0,0,0-.65-.65.649.649,0,0,0-.65.65A.649.649,0,0,0-4.125-5.42ZM-3.605,0V-4.83h-1.05V0Zm5.68,0V-3.4A1.392,1.392,0,0,0,.515-4.95a2.3,2.3,0,0,0-1.71.77v-.65h-1.05V0H-1.2V-3.38a1.646,1.646,0,0,1,1.24-.64c.59,0,.98.24.98,1V0Zm7.95,0V-3.21c0-1.29-.94-1.74-2.02-1.74a2.829,2.829,0,0,0-2.03.78l.44.73a1.934,1.934,0,0,1,1.43-.62c.66,0,1.13.34,1.13.9v.72A2.019,2.019,0,0,0,7.4-3.06a1.55,1.55,0,0,0-1.67,1.58A1.608,1.608,0,0,0,7.4.12a2.033,2.033,0,0,0,1.57-.65V0Zm-2.2-.6a.926.926,0,0,1-1.04-.87.932.932,0,0,1,1.04-.87,1.441,1.441,0,0,1,1.15.5v.74A1.441,1.441,0,0,1,7.825-.6Zm5.53,2.56c1.18,0,2.48-.47,2.48-2.21V-4.83h-1.05v.67a1.9,1.9,0,0,0-1.55-.79c-1.25,0-2.14.91-2.14,2.48,0,1.59.91,2.48,2.14,2.48a1.942,1.942,0,0,0,1.55-.81v.55a1.279,1.279,0,0,1-1.43,1.35,1.906,1.906,0,0,1-1.54-.62l-.49.76A2.764,2.764,0,0,0,13.355,1.96Zm.19-2.89a1.369,1.369,0,0,1-1.37-1.54,1.377,1.377,0,0,1,1.37-1.55,1.6,1.6,0,0,1,1.24.64v1.81A1.6,1.6,0,0,1,13.545-.93ZM19.385.12a2.42,2.42,0,0,0,2.48-2.54,2.407,2.407,0,0,0-2.48-2.53A2.407,2.407,0,0,0,16.9-2.42,2.42,2.42,0,0,0,19.385.12Zm0-.93a1.452,1.452,0,0,1-1.39-1.61,1.448,1.448,0,0,1,1.39-1.6,1.442,1.442,0,0,1,1.39,1.6A1.446,1.446,0,0,1,19.385-.81Z" transform="translate(2746 328)"/><g class="l" transform="translate(47.238 70)"><path d="M7.3,8.575H2a2,2,0,0,1-2-2V2A2,2,0,0,1,2,0h8.359a2,2,0,0,1,2,2V6.575a2,2,0,0,1-2,2h-.208v2.381Z" transform="translate(2737.069 247)"/><path d="M10.151,10.957h0L7.3,8.575H2a2,2,0,0,1-2-2V2A2,2,0,0,1,2,0H5.518V3.423a2,2,0,0,0,2,2h4.84V6.575a2,2,0,0,1-2,2h-.208v2.381Z" transform="translate(2730.762 250.941)"/></g><line class="f" x2="338" transform="translate(2459.5 435.5)"/><g transform="translate(0 74)"><text class="j" transform="translate(2546 323)"><tspan x="-47.866" y="0">Technical Team</tspan></text><path d="M-75.32,0V-5.64h2.02V-6.67h-5.21v1.03h2.02V0Zm4.17.12a2.857,2.857,0,0,0,1.96-.71l-.48-.69a2.031,2.031,0,0,1-1.38.54,1.46,1.46,0,0,1-1.53-1.33h3.72v-.26a2.377,2.377,0,0,0-2.37-2.62,2.441,2.441,0,0,0-2.45,2.53A2.423,2.423,0,0,0-71.15.12Zm1.28-2.94h-2.72a1.321,1.321,0,0,1,1.35-1.27A1.3,1.3,0,0,1-69.87-2.82ZM-65.62.12a2.177,2.177,0,0,0,1.85-.86l-.69-.65a1.3,1.3,0,0,1-1.11.58,1.472,1.472,0,0,1-1.46-1.61,1.463,1.463,0,0,1,1.46-1.6,1.281,1.281,0,0,1,1.11.56l.69-.63a2.152,2.152,0,0,0-1.85-.86,2.421,2.421,0,0,0-2.49,2.53A2.43,2.43,0,0,0-65.62.12Zm7.1-.12V-3.42a1.378,1.378,0,0,0-1.56-1.53,2.28,2.28,0,0,0-1.7.77V-6.67h-1.05V0h1.05V-3.38a1.612,1.612,0,0,1,1.24-.64c.59,0,.97.22.97.98V0Zm5.68,0V-3.4A1.392,1.392,0,0,0-54.4-4.95a2.3,2.3,0,0,0-1.71.77v-.65h-1.05V0h1.05V-3.38a1.646,1.646,0,0,1,1.24-.64c.59,0,.98.24.98,1V0Zm1.89-5.42a.649.649,0,0,0,.65-.65.649.649,0,0,0-.65-.65.649.649,0,0,0-.65.65A.649.649,0,0,0-50.95-5.42ZM-50.43,0V-4.83h-1.05V0Zm3.56.12a2.177,2.177,0,0,0,1.85-.86l-.69-.65a1.3,1.3,0,0,1-1.11.58,1.472,1.472,0,0,1-1.46-1.61,1.463,1.463,0,0,1,1.46-1.6,1.281,1.281,0,0,1,1.11.56l.69-.63a2.152,2.152,0,0,0-1.85-.86,2.421,2.421,0,0,0-2.49,2.53A2.43,2.43,0,0,0-46.87.12ZM-40.08,0V-3.21c0-1.29-.94-1.74-2.02-1.74a2.829,2.829,0,0,0-2.03.78l.44.73a1.934,1.934,0,0,1,1.43-.62c.66,0,1.13.34,1.13.9v.72a2.019,2.019,0,0,0-1.57-.62,1.55,1.55,0,0,0-1.67,1.58A1.608,1.608,0,0,0-42.7.12a2.033,2.033,0,0,0,1.57-.65V0Zm-2.2-.6a.926.926,0,0,1-1.04-.87.932.932,0,0,1,1.04-.87,1.441,1.441,0,0,1,1.15.5v.74A1.441,1.441,0,0,1-42.28-.6Zm4.61.6V-6.67h-1.05V0Zm6.73,0V-5.64h2.02V-6.67h-5.21v1.03h2.02V0Zm4.17.12a2.857,2.857,0,0,0,1.96-.71l-.48-.69a2.031,2.031,0,0,1-1.38.54A1.46,1.46,0,0,1-28.2-2.07h3.72v-.26a2.377,2.377,0,0,0-2.37-2.62A2.441,2.441,0,0,0-29.3-2.42,2.423,2.423,0,0,0-26.77.12Zm1.28-2.94h-2.72a1.321,1.321,0,0,1,1.35-1.27A1.3,1.3,0,0,1-25.49-2.82ZM-19.43,0V-3.21c0-1.29-.94-1.74-2.02-1.74a2.829,2.829,0,0,0-2.03.78l.44.73a1.934,1.934,0,0,1,1.43-.62c.66,0,1.13.34,1.13.9v.72a2.019,2.019,0,0,0-1.57-.62,1.55,1.55,0,0,0-1.67,1.58A1.608,1.608,0,0,0-22.05.12a2.033,2.033,0,0,0,1.57-.65V0Zm-2.2-.6a.926.926,0,0,1-1.04-.87.932.932,0,0,1,1.04-.87,1.441,1.441,0,0,1,1.15.5v.74A1.441,1.441,0,0,1-21.63-.6Zm10.54.6V-3.49a1.277,1.277,0,0,0-1.39-1.46,2.036,2.036,0,0,0-1.64.88,1.262,1.262,0,0,0-1.32-.88,2.139,2.139,0,0,0-1.58.77v-.65h-1.05V0h1.05V-3.38a1.483,1.483,0,0,1,1.12-.64c.57,0,.79.35.79.87V0h1.05V-3.38a1.438,1.438,0,0,1,1.12-.64c.57,0,.8.35.8.87V0Zm4.47-5.42a.649.649,0,0,0,.65-.65.649.649,0,0,0-.65-.65.649.649,0,0,0-.65.65A.649.649,0,0,0-6.62-5.42ZM-7.7,1.96A1.486,1.486,0,0,0-6.1.28V-4.83H-7.15V.28c0,.57-.29.82-.71.82A.934.934,0,0,1-8.53.83l-.31.78A1.639,1.639,0,0,0-7.7,1.96ZM-.43,0V-4.83H-1.48v3.39a1.6,1.6,0,0,1-1.23.63c-.6,0-.98-.24-.98-.99V-4.83H-4.74v3.42A1.382,1.382,0,0,0-3.18.12a2.31,2.31,0,0,0,1.7-.76V0ZM2.59.12C3.89.12,4.6-.53,4.6-1.39c0-1.92-2.92-1.28-2.92-2.13,0-.34.34-.6.89-.6A1.97,1.97,0,0,1,4-3.54l.44-.74a2.759,2.759,0,0,0-1.87-.67c-1.22,0-1.9.67-1.9,1.46,0,1.86,2.92,1.18,2.92,2.13,0,.38-.33.64-.96.64A2.481,2.481,0,0,1,1-1.39L.52-.64A2.927,2.927,0,0,0,2.59.12Zm4.52,0a1.422,1.422,0,0,0,.98-.31l-.25-.8a.653.653,0,0,1-.46.18c-.3,0-.46-.25-.46-.58V-3.92H7.9v-.91H6.92V-6.15H5.87v1.32h-.8v.91h.8v2.79A1.113,1.113,0,0,0,7.11.12Zm6.51,0a2.177,2.177,0,0,0,1.85-.86l-.69-.65a1.3,1.3,0,0,1-1.11.58,1.472,1.472,0,0,1-1.46-1.61,1.463,1.463,0,0,1,1.46-1.6,1.281,1.281,0,0,1,1.11.56l.69-.63a2.152,2.152,0,0,0-1.85-.86,2.421,2.421,0,0,0-2.49,2.53A2.43,2.43,0,0,0,13.62.12ZM17.45,0V-6.67H16.4V0ZM21,.12a2.42,2.42,0,0,0,2.48-2.54A2.407,2.407,0,0,0,21-4.95a2.407,2.407,0,0,0-2.48,2.53A2.42,2.42,0,0,0,21,.12Zm0-.93a1.452,1.452,0,0,1-1.39-1.61A1.448,1.448,0,0,1,21-4.02a1.442,1.442,0,0,1,1.39,1.6A1.446,1.446,0,0,1,21-.81Zm5.21.93c1.3,0,2.01-.65,2.01-1.51,0-1.92-2.92-1.28-2.92-2.13,0-.34.34-.6.89-.6a1.97,1.97,0,0,1,1.43.58l.44-.74a2.76,2.76,0,0,0-1.87-.67c-1.22,0-1.9.67-1.9,1.46,0,1.86,2.92,1.18,2.92,2.13,0,.38-.33.64-.96.64a2.481,2.481,0,0,1-1.63-.67l-.48.75A2.927,2.927,0,0,0,26.21.12Zm5.3,0a2.857,2.857,0,0,0,1.96-.71l-.48-.69a2.031,2.031,0,0,1-1.38.54,1.46,1.46,0,0,1-1.53-1.33H33.8v-.26a2.377,2.377,0,0,0-2.37-2.62,2.441,2.441,0,0,0-2.45,2.53A2.423,2.423,0,0,0,31.51.12Zm1.28-2.94H30.07a1.321,1.321,0,0,1,1.35-1.27A1.3,1.3,0,0,1,32.79-2.82ZM39.29,0V-6.67H38.24v2.51a1.883,1.883,0,0,0-1.55-.79c-1.24,0-2.14.97-2.14,2.53,0,1.6.91,2.54,2.14,2.54a1.942,1.942,0,0,0,1.55-.78V0ZM37-.81a1.424,1.424,0,0,1-1.37-1.61A1.42,1.42,0,0,1,37-4.02a1.567,1.567,0,0,1,1.24.65v1.91A1.567,1.567,0,0,1,37-.81Zm7.69.93a1.422,1.422,0,0,0,.98-.31l-.25-.8a.653.653,0,0,1-.46.18c-.3,0-.46-.25-.46-.58V-3.92h.98v-.91H44.5V-6.15H43.45v1.32h-.8v.91h.8v2.79A1.113,1.113,0,0,0,44.69.12ZM50.74,0V-3.42a1.378,1.378,0,0,0-1.56-1.53,2.28,2.28,0,0,0-1.7.77V-6.67H46.43V0h1.05V-3.38a1.612,1.612,0,0,1,1.24-.64c.59,0,.97.22.97.98V0Zm3.6.12A2.857,2.857,0,0,0,56.3-.59l-.48-.69a2.031,2.031,0,0,1-1.38.54,1.46,1.46,0,0,1-1.53-1.33h3.72v-.26a2.377,2.377,0,0,0-2.37-2.62,2.441,2.441,0,0,0-2.45,2.53A2.423,2.423,0,0,0,54.34.12Zm1.28-2.94H52.9a1.321,1.321,0,0,1,1.35-1.27A1.3,1.3,0,0,1,55.62-2.82ZM62.45.12A2.177,2.177,0,0,0,64.3-.74l-.69-.65a1.3,1.3,0,0,1-1.11.58,1.472,1.472,0,0,1-1.46-1.61,1.463,1.463,0,0,1,1.46-1.6,1.281,1.281,0,0,1,1.11.56l.69-.63a2.152,2.152,0,0,0-1.85-.86,2.421,2.421,0,0,0-2.49,2.53A2.43,2.43,0,0,0,62.45.12ZM69.55,0V-3.42a1.378,1.378,0,0,0-1.56-1.53,2.28,2.28,0,0,0-1.7.77V-6.67H65.24V0h1.05V-3.38a1.612,1.612,0,0,1,1.24-.64c.59,0,.97.22.97.98V0Zm5.37,0V-3.21c0-1.29-.94-1.74-2.02-1.74a2.829,2.829,0,0,0-2.03.78l.44.73a1.934,1.934,0,0,1,1.43-.62c.66,0,1.13.34,1.13.9v.72a2.019,2.019,0,0,0-1.57-.62,1.55,1.55,0,0,0-1.67,1.58A1.608,1.608,0,0,0,72.3.12a2.033,2.033,0,0,0,1.57-.65V0Zm-2.2-.6a.926.926,0,0,1-1.04-.87.932.932,0,0,1,1.04-.87,1.441,1.441,0,0,1,1.15.5v.74A1.441,1.441,0,0,1,72.72-.6Zm5.02.72a1.422,1.422,0,0,0,.98-.31l-.25-.8a.653.653,0,0,1-.46.18c-.3,0-.46-.25-.46-.58V-3.92h.98v-.91h-.98V-6.15H76.5v1.32h-.8v.91h.8v2.79A1.113,1.113,0,0,0,77.74.12Z" transform="translate(2577 336)"/></g><path class="g" d="M-35.995,0V-6.67h-1.65l-1.81,4.58-1.82-4.58h-1.65V0h1.17V-5.15L-39.7,0h.5l2.04-5.15V0Zm3.58.12a2.42,2.42,0,0,0,2.48-2.54,2.407,2.407,0,0,0-2.48-2.53,2.407,2.407,0,0,0-2.48,2.53A2.42,2.42,0,0,0-32.415.12Zm0-.93A1.452,1.452,0,0,1-33.8-2.42a1.448,1.448,0,0,1,1.39-1.6,1.442,1.442,0,0,1,1.39,1.6A1.446,1.446,0,0,1-32.415-.81Zm7.87.81V-3.4A1.392,1.392,0,0,0-26.1-4.95a2.3,2.3,0,0,0-1.71.77v-.65h-1.05V0h1.05V-3.38a1.646,1.646,0,0,1,1.24-.64c.59,0,.98.24.98,1V0Zm5.81,0V-6.67h-1.05v2.51a1.883,1.883,0,0,0-1.55-.79c-1.24,0-2.14.97-2.14,2.53,0,1.6.91,2.54,2.14,2.54a1.942,1.942,0,0,0,1.55-.78V0Zm-2.29-.81a1.424,1.424,0,0,1-1.37-1.61,1.42,1.42,0,0,1,1.37-1.6,1.567,1.567,0,0,1,1.24.65v1.91A1.567,1.567,0,0,1-21.025-.81Zm7.66.81V-3.21c0-1.29-.94-1.74-2.02-1.74a2.829,2.829,0,0,0-2.03.78l.44.73a1.934,1.934,0,0,1,1.43-.62c.66,0,1.13.34,1.13.9v.72a2.019,2.019,0,0,0-1.57-.62,1.55,1.55,0,0,0-1.67,1.58,1.608,1.608,0,0,0,1.67,1.6,2.033,2.033,0,0,0,1.57-.65V0Zm-2.2-.6a.926.926,0,0,1-1.04-.87.932.932,0,0,1,1.04-.87,1.441,1.441,0,0,1,1.15.5v.74A1.441,1.441,0,0,1-15.565-.6Zm3.36,2.49a2.885,2.885,0,0,0,.59.07A1.605,1.605,0,0,0-9.965.87l2.33-5.7h-1.12l-1.41,3.62-1.41-3.62H-12.7l1.99,4.89-.24.55a.659.659,0,0,1-.7.42,1.1,1.1,0,0,1-.4-.08ZM-.385,0V-3.21c0-1.29-.94-1.74-2.02-1.74a2.829,2.829,0,0,0-2.03.78l.44.73a1.934,1.934,0,0,1,1.43-.62c.66,0,1.13.34,1.13.9v.72A2.019,2.019,0,0,0-3-3.06a1.55,1.55,0,0,0-1.67,1.58A1.608,1.608,0,0,0-3,.12a2.033,2.033,0,0,0,1.57-.65V0Zm-2.2-.6a.926.926,0,0,1-1.04-.87.932.932,0,0,1,1.04-.87,1.441,1.441,0,0,1,1.15.5v.74A1.441,1.441,0,0,1-2.585-.6Zm5.02.72a1.422,1.422,0,0,0,.98-.31l-.25-.8a.653.653,0,0,1-.46.18c-.3,0-.46-.25-.46-.58V-3.92h.98v-.91h-.98V-6.15H1.2v1.32H.4v.91h.8v2.79A1.113,1.113,0,0,0,2.435.12Zm6.8,0A2.283,2.283,0,0,0,11.7-2.12a2.087,2.087,0,0,0-2.24-2.16,2.313,2.313,0,0,0-1.79.94v-.19c0-1.17.64-2.2,1.76-2.2a1.751,1.751,0,0,1,1.37.58l.54-.88a2.621,2.621,0,0,0-1.91-.74c-1.93,0-2.94,1.52-2.94,3.44C6.485-1.47,7.275.12,9.235.12ZM9.165-.92a1.523,1.523,0,0,1-1.48-1.57,1.8,1.8,0,0,1,1.46-.78,1.2,1.2,0,0,1,1.36,1.19A1.241,1.241,0,0,1,9.165-.92Zm4.14-2.59a.707.707,0,0,0,.7-.69.709.709,0,0,0-.7-.7.709.709,0,0,0-.7.7A.707.707,0,0,0,13.305-3.51Zm0,3.62a.717.717,0,0,0,.7-.71.707.707,0,0,0-.7-.69.707.707,0,0,0-.7.69A.717.717,0,0,0,13.305.11Zm4.18.01a2.291,2.291,0,0,0,2.55-2.26A2.065,2.065,0,0,0,17.9-4.29a2.234,2.234,0,0,0-1.51.57V-5.64h3.2V-6.67h-4.37v3.72l.83.24a2.029,2.029,0,0,1,1.46-.57,1.188,1.188,0,0,1,1.34,1.18,1.225,1.225,0,0,1-1.37,1.18,2.257,2.257,0,0,1-1.79-.8l-.67.81A3.071,3.071,0,0,0,17.485.12Zm6.05,0c1.87,0,2.66-1.78,2.66-3.45s-.79-3.44-2.66-3.44-2.67,1.76-2.67,3.44S21.655.12,23.535.12Zm0-1.04c-1.09,0-1.48-1.14-1.48-2.41s.39-2.4,1.48-2.4,1.47,1.12,1.47,2.4S24.615-.92,23.535-.92Zm7.54.92V-2.5h1.77a2.024,2.024,0,0,0,2.17-2.08,2.021,2.021,0,0,0-2.17-2.09H29.9V0Zm1.61-3.53h-1.61V-5.64h1.61a1.043,1.043,0,0,1,1.13,1.06A1.041,1.041,0,0,1,32.685-3.53ZM42.925,0V-6.67h-1.65l-1.81,4.58-1.82-4.58h-1.65V0h1.17V-5.15L39.215,0h.5l2.04-5.15V0Z" transform="translate(2754 402)"/><line class="f" x2="338" transform="translate(2459.5 509.5)"/><g transform="translate(0 148)"><text class="j" transform="translate(2512 323)"><tspan x="-13.678" y="0">Raju</tspan></text><text class="h" transform="translate(2552 336)"><tspan x="-54.37" y="0">Raju just closed the chat</tspan></text></g><path class="g" d="M-49.535.12a2.062,2.062,0,0,0,2.25-2.24V-6.67h-1.17v4.54a1.124,1.124,0,0,1-1.17,1.21,1.484,1.484,0,0,1-1.14-.56l-.55.89A2.359,2.359,0,0,0-49.535.12Zm7.65-.12V-3.21c0-1.29-.94-1.74-2.02-1.74a2.829,2.829,0,0,0-2.03.78l.44.73a1.934,1.934,0,0,1,1.43-.62c.66,0,1.13.34,1.13.9v.72a2.019,2.019,0,0,0-1.57-.62,1.55,1.55,0,0,0-1.67,1.58A1.608,1.608,0,0,0-44.5.12a2.033,2.033,0,0,0,1.57-.65V0Zm-2.2-.6a.926.926,0,0,1-1.04-.87.932.932,0,0,1,1.04-.87,1.441,1.441,0,0,1,1.15.5v.74A1.441,1.441,0,0,1-44.085-.6Zm7.88.6V-3.4a1.392,1.392,0,0,0-1.56-1.55,2.3,2.3,0,0,0-1.71.77v-.65h-1.05V0h1.05V-3.38a1.646,1.646,0,0,1,1.24-.64c.59,0,.98.24.98,1V0Zm5.67,0V-4.83h-1.05v3.39a1.6,1.6,0,0,1-1.23.63c-.6,0-.98-.24-.98-.99V-4.83h-1.05v3.42A1.382,1.382,0,0,0-33.285.12a2.31,2.31,0,0,0,1.7-.76V0Zm5.37,0V-3.21c0-1.29-.94-1.74-2.02-1.74a2.829,2.829,0,0,0-2.03.78l.44.73a1.934,1.934,0,0,1,1.43-.62c.66,0,1.13.34,1.13.9v.72a2.019,2.019,0,0,0-1.57-.62,1.55,1.55,0,0,0-1.67,1.58,1.608,1.608,0,0,0,1.67,1.6,2.033,2.033,0,0,0,1.57-.65V0Zm-2.2-.6a.926.926,0,0,1-1.04-.87.932.932,0,0,1,1.04-.87,1.441,1.441,0,0,1,1.15.5v.74A1.441,1.441,0,0,1-27.365-.6Zm4.61.6V-3.29a1.649,1.649,0,0,1,1.25-.65,1.449,1.449,0,0,1,.32.03V-4.95a2.1,2.1,0,0,0-1.57.82v-.7H-23.8V0Zm2.22,1.89a2.885,2.885,0,0,0,.59.07A1.605,1.605,0,0,0-18.295.87l2.33-5.7h-1.12l-1.41,3.62L-19.9-4.83h-1.13l1.99,4.89-.24.55a.659.659,0,0,1-.7.42,1.1,1.1,0,0,1-.4-.08ZM-10.315,0V-6.67h-1.02l-1.92,1.94.68.71,1.09-1.14V0Zm3.8,0V-6.67h-1.02l-1.92,1.94.68.71,1.09-1.14V0Zm7.98,0V-3.21c0-1.29-.94-1.74-2.02-1.74a2.829,2.829,0,0,0-2.03.78l.44.73a1.934,1.934,0,0,1,1.43-.62c.66,0,1.13.34,1.13.9v.72a2.019,2.019,0,0,0-1.57-.62,1.55,1.55,0,0,0-1.67,1.58A1.608,1.608,0,0,0-1.155.12,2.033,2.033,0,0,0,.415-.53V0Zm-2.2-.6a.926.926,0,0,1-1.04-.87.932.932,0,0,1,1.04-.87,1.441,1.441,0,0,1,1.15.5v.74A1.441,1.441,0,0,1-.735-.6Zm5.02.72a1.422,1.422,0,0,0,.98-.31l-.25-.8a.653.653,0,0,1-.46.18c-.3,0-.46-.25-.46-.58V-3.92h.98v-.91H4.1V-6.15H3.045v1.32h-.8v.91h.8v2.79A1.113,1.113,0,0,0,4.285.12Zm6.72,0c1.87,0,2.66-1.78,2.66-3.45s-.79-3.44-2.66-3.44-2.67,1.76-2.67,3.44S9.125.12,11.005.12Zm0-1.04c-1.09,0-1.48-1.14-1.48-2.41s.39-2.4,1.48-2.4,1.47,1.12,1.47,2.4S12.085-.92,11.005-.92ZM16.745.11c1.93,0,2.94-1.52,2.94-3.45,0-1.85-.79-3.44-2.75-3.44a2.277,2.277,0,0,0-2.46,2.24A2.071,2.071,0,0,0,16.7-2.39a2.273,2.273,0,0,0,1.79-.93,1.21,1.21,0,0,1,.01.19c0,1.09-.55,2.2-1.76,2.2a1.712,1.712,0,0,1-1.37-.59l-.55.89A2.67,2.67,0,0,0,16.745.11Zm.28-3.5c-.73,0-1.37-.37-1.37-1.19a1.235,1.235,0,0,1,1.34-1.16,1.523,1.523,0,0,1,1.49,1.56A1.827,1.827,0,0,1,17.025-3.39Zm4.3-.12a.707.707,0,0,0,.7-.69.709.709,0,0,0-.7-.7.709.709,0,0,0-.7.7A.707.707,0,0,0,21.325-3.51Zm0,3.62a.717.717,0,0,0,.7-.71.707.707,0,0,0-.7-.69.707.707,0,0,0-.7.69A.717.717,0,0,0,21.325.11Zm4.23.01c1.87,0,2.66-1.78,2.66-3.45s-.79-3.44-2.66-3.44-2.67,1.76-2.67,3.44S23.675.12,25.555.12Zm0-1.04c-1.09,0-1.48-1.14-1.48-2.41s.39-2.4,1.48-2.4,1.47,1.12,1.47,2.4S26.635-.92,25.555-.92ZM31.4.12c1.55,0,2.52-.81,2.52-1.95a1.691,1.691,0,0,0-1.55-1.62,1.612,1.612,0,0,0,1.44-1.53c0-1.11-.96-1.79-2.4-1.79a3.093,3.093,0,0,0-2.44,1.05l.6.73a2.314,2.314,0,0,1,1.73-.74c.74,0,1.35.32,1.35.93s-.59.88-1.38.88c-.26,0-.65,0-.76-.01v1.06c.1-.01.48-.02.76-.02.96,0,1.48.29,1.48.95,0,.61-.51,1.02-1.39,1.02a2.468,2.468,0,0,1-1.84-.81l-.64.77A3.12,3.12,0,0,0,31.4.12ZM38.835,0V-2.5h1.77a2.024,2.024,0,0,0,2.17-2.08,2.021,2.021,0,0,0-2.17-2.09h-2.94V0Zm1.61-3.53h-1.61V-5.64h1.61a1.043,1.043,0,0,1,1.13,1.06A1.041,1.041,0,0,1,40.445-3.53ZM50.685,0V-6.67h-1.65l-1.81,4.58L45.4-6.67h-1.65V0h1.17V-5.15L46.975,0h.5l2.04-5.15V0Z" transform="translate(2747 476)"/><line class="f" x2="338" transform="translate(2459.5 583.5)"/><line class="f" x2="338" transform="translate(2460.5 657.5)"/><g transform="translate(0 222)"><text class="j" transform="translate(2512 323)"><tspan x="-13.678" y="0">Raju</tspan></text><text class="h" transform="translate(2552 336)"><tspan x="-54.37" y="0">Raju just closed the chat</tspan></text></g><g transform="translate(1 296)"><text class="j" transform="translate(2528 323)"><tspan x="-30.037" y="0">John Doe</tspan></text><text class="h" transform="translate(2525 336)"><tspan x="-27.1" y="0">Thank You!!!</tspan></text></g><path class="g" d="M-39.42,0a3.246,3.246,0,0,0,3.48-3.34,3.252,3.252,0,0,0-3.49-3.33h-2.48V0Zm-.01-1.03h-1.31V-5.64h1.32a2.156,2.156,0,0,1,2.28,2.3A2.193,2.193,0,0,1-39.43-1.03ZM-32.6.12a2.857,2.857,0,0,0,1.96-.71l-.48-.69a2.031,2.031,0,0,1-1.38.54,1.46,1.46,0,0,1-1.53-1.33h3.72v-.26a2.377,2.377,0,0,0-2.37-2.62,2.441,2.441,0,0,0-2.45,2.53A2.423,2.423,0,0,0-32.6.12Zm1.28-2.94h-2.72a1.321,1.321,0,0,1,1.35-1.27A1.3,1.3,0,0,1-31.32-2.82ZM-27.07.12a2.177,2.177,0,0,0,1.85-.86l-.69-.65a1.3,1.3,0,0,1-1.11.58,1.472,1.472,0,0,1-1.46-1.61,1.463,1.463,0,0,1,1.46-1.6,1.28,1.28,0,0,1,1.11.56l.69-.63a2.152,2.152,0,0,0-1.85-.86,2.421,2.421,0,0,0-2.49,2.53A2.43,2.43,0,0,0-27.07.12ZM-19.3,0V-6.67h-1.02l-1.92,1.94.68.71,1.09-1.14V0Zm6.04,0V-1.03h-2.95c1.78-1.35,2.91-2.45,2.91-3.69a2.15,2.15,0,0,0-2.41-2.05A3.17,3.17,0,0,0-18.18-5.7l.68.76a2.324,2.324,0,0,1,1.8-.79c.61,0,1.22.31,1.22,1.01,0,.97-1.02,1.83-3.61,3.79V0Zm7.89,0V-3.21c0-1.29-.94-1.74-2.02-1.74a2.829,2.829,0,0,0-2.03.78l.44.73a1.934,1.934,0,0,1,1.43-.62c.66,0,1.13.34,1.13.9v.72a2.019,2.019,0,0,0-1.57-.62A1.55,1.55,0,0,0-9.66-1.48,1.608,1.608,0,0,0-7.99.12,2.033,2.033,0,0,0-6.42-.53V0Zm-2.2-.6a.926.926,0,0,1-1.04-.87.932.932,0,0,1,1.04-.87,1.441,1.441,0,0,1,1.15.5v.74A1.441,1.441,0,0,1-7.57-.6Zm5.02.72a1.422,1.422,0,0,0,.98-.31l-.25-.8a.653.653,0,0,1-.46.18c-.3,0-.46-.25-.46-.58V-3.92h.98v-.91h-.98V-6.15H-3.79v1.32h-.8v.91h.8v2.79A1.113,1.113,0,0,0-2.55.12Zm6.72,0c1.87,0,2.66-1.78,2.66-3.45S6.04-6.77,4.17-6.77,1.5-5.01,1.5-3.33,2.29.12,4.17.12Zm0-1.04c-1.09,0-1.48-1.14-1.48-2.41s.39-2.4,1.48-2.4,1.47,1.12,1.47,2.4S5.25-.92,4.17-.92ZM10.42.12a2.283,2.283,0,0,0,2.46-2.24,2.087,2.087,0,0,0-2.24-2.16,2.313,2.313,0,0,0-1.79.94v-.19c0-1.17.64-2.2,1.76-2.2a1.751,1.751,0,0,1,1.37.58l.54-.88a2.621,2.621,0,0,0-1.91-.74c-1.93,0-2.94,1.52-2.94,3.44C7.67-1.47,8.46.12,10.42.12ZM10.35-.92A1.523,1.523,0,0,1,8.87-2.49a1.8,1.8,0,0,1,1.46-.78,1.2,1.2,0,0,1,1.36,1.19A1.241,1.241,0,0,1,10.35-.92Zm4.14-2.59a.707.707,0,0,0,.7-.69.709.709,0,0,0-.7-.7.709.709,0,0,0-.7.7A.707.707,0,0,0,14.49-3.51Zm0,3.62a.717.717,0,0,0,.7-.71.707.707,0,0,0-.7-.69.707.707,0,0,0-.7.69A.717.717,0,0,0,14.49.11ZM18.72,0V-6.67H17.7L15.78-4.73l.68.71,1.09-1.14V0Zm3.8.12c1.87,0,2.66-1.78,2.66-3.45s-.79-3.44-2.66-3.44-2.67,1.76-2.67,3.44S20.64.12,22.52.12Zm0-1.04c-1.09,0-1.48-1.14-1.48-2.41s.39-2.4,1.48-2.4,1.47,1.12,1.47,2.4S23.6-.92,22.52-.92ZM30.06,0V-2.5h1.77A2.024,2.024,0,0,0,34-4.58a2.021,2.021,0,0,0-2.17-2.09H28.89V0Zm1.61-3.53H30.06V-5.64h1.61A1.043,1.043,0,0,1,32.8-4.58,1.041,1.041,0,0,1,31.67-3.53ZM41.91,0V-6.67H40.26L38.45-2.09,36.63-6.67H34.98V0h1.17V-5.15L38.2,0h.5l2.04-5.15V0Z" transform="translate(2755 550)"/><path class="g" d="M-49.19.12a2.062,2.062,0,0,0,2.25-2.24V-6.67h-1.17v4.54A1.124,1.124,0,0,1-49.28-.92a1.484,1.484,0,0,1-1.14-.56l-.55.89A2.359,2.359,0,0,0-49.19.12ZM-41.54,0V-3.21c0-1.29-.94-1.74-2.02-1.74a2.829,2.829,0,0,0-2.03.78l.44.73a1.934,1.934,0,0,1,1.43-.62c.66,0,1.13.34,1.13.9v.72a2.019,2.019,0,0,0-1.57-.62,1.55,1.55,0,0,0-1.67,1.58A1.608,1.608,0,0,0-44.16.12a2.033,2.033,0,0,0,1.57-.65V0Zm-2.2-.6a.926.926,0,0,1-1.04-.87.932.932,0,0,1,1.04-.87,1.441,1.441,0,0,1,1.15.5v.74A1.441,1.441,0,0,1-43.74-.6Zm7.88.6V-3.4a1.392,1.392,0,0,0-1.56-1.55,2.3,2.3,0,0,0-1.71.77v-.65h-1.05V0h1.05V-3.38a1.646,1.646,0,0,1,1.24-.64c.59,0,.98.24.98,1V0Zm5.67,0V-4.83h-1.05v3.39a1.6,1.6,0,0,1-1.23.63c-.6,0-.98-.24-.98-.99V-4.83H-34.5v3.42A1.382,1.382,0,0,0-32.94.12a2.31,2.31,0,0,0,1.7-.76V0Zm5.37,0V-3.21c0-1.29-.94-1.74-2.02-1.74a2.829,2.829,0,0,0-2.03.78l.44.73A1.934,1.934,0,0,1-27-4.06c.66,0,1.13.34,1.13.9v.72a2.019,2.019,0,0,0-1.57-.62,1.55,1.55,0,0,0-1.67,1.58A1.608,1.608,0,0,0-27.44.12a2.033,2.033,0,0,0,1.57-.65V0Zm-2.2-.6a.926.926,0,0,1-1.04-.87.932.932,0,0,1,1.04-.87,1.441,1.441,0,0,1,1.15.5v.74A1.441,1.441,0,0,1-27.02-.6Zm4.61.6V-3.29a1.649,1.649,0,0,1,1.25-.65,1.449,1.449,0,0,1,.32.03V-4.95a2.1,2.1,0,0,0-1.57.82v-.7h-1.05V0Zm2.22,1.89a2.885,2.885,0,0,0,.59.07A1.605,1.605,0,0,0-17.95.87l2.33-5.7h-1.12l-1.41,3.62-1.41-3.62h-1.13L-18.7.06l-.24.55a.659.659,0,0,1-.7.42,1.1,1.1,0,0,1-.4-.08ZM-9.97,0V-6.67h-1.02l-1.92,1.94.68.71,1.09-1.14V0Zm3.8,0V-6.67H-7.19L-9.11-4.73l.68.71,1.09-1.14V0ZM1.81,0V-3.21C1.81-4.5.87-4.95-.21-4.95a2.829,2.829,0,0,0-2.03.78l.44.73A1.934,1.934,0,0,1-.37-4.06c.66,0,1.13.34,1.13.9v.72A2.019,2.019,0,0,0-.81-3.06,1.55,1.55,0,0,0-2.48-1.48,1.608,1.608,0,0,0-.81.12,2.033,2.033,0,0,0,.76-.53V0ZM-.39-.6a.926.926,0,0,1-1.04-.87A.932.932,0,0,1-.39-2.34a1.441,1.441,0,0,1,1.15.5v.74A1.441,1.441,0,0,1-.39-.6ZM4.63.12a1.422,1.422,0,0,0,.98-.31l-.25-.8a.653.653,0,0,1-.46.18c-.3,0-.46-.25-.46-.58V-3.92h.98v-.91H4.44V-6.15H3.39v1.32h-.8v.91h.8v2.79A1.113,1.113,0,0,0,4.63.12Zm6.72,0c1.87,0,2.66-1.78,2.66-3.45s-.79-3.44-2.66-3.44S8.68-5.01,8.68-3.33,9.47.12,11.35.12Zm0-1.04c-1.09,0-1.48-1.14-1.48-2.41s.39-2.4,1.48-2.4,1.47,1.12,1.47,2.4S12.43-.92,11.35-.92ZM16.93,0l2.58-5.86v-.81H14.7v1.03h3.46L15.64,0Zm4.05-3.51a.707.707,0,0,0,.7-.69.709.709,0,0,0-.7-.7.709.709,0,0,0-.7.7A.707.707,0,0,0,20.98-3.51Zm0,3.62a.717.717,0,0,0,.7-.71.707.707,0,0,0-.7-.69.707.707,0,0,0-.7.69A.717.717,0,0,0,20.98.11Zm4.23.01c1.87,0,2.66-1.78,2.66-3.45s-.79-3.44-2.66-3.44-2.67,1.76-2.67,3.44S23.33.12,25.21.12Zm0-1.04c-1.09,0-1.48-1.14-1.48-2.41s.39-2.4,1.48-2.4,1.47,1.12,1.47,2.4S26.29-.92,25.21-.92ZM31.05.12c1.55,0,2.52-.81,2.52-1.95a1.691,1.691,0,0,0-1.55-1.62,1.612,1.612,0,0,0,1.44-1.53c0-1.11-.96-1.79-2.4-1.79a3.093,3.093,0,0,0-2.44,1.05l.6.73a2.314,2.314,0,0,1,1.73-.74c.74,0,1.35.32,1.35.93s-.59.88-1.38.88c-.26,0-.65,0-.76-.01v1.06c.1-.01.48-.02.76-.02.96,0,1.48.29,1.48.95,0,.61-.51,1.02-1.39,1.02a2.468,2.468,0,0,1-1.84-.81l-.64.77A3.12,3.12,0,0,0,31.05.12ZM38.49,0V-2.5h1.77a2.024,2.024,0,0,0,2.17-2.08,2.021,2.021,0,0,0-2.17-2.09H37.32V0ZM40.1-3.53H38.49V-5.64H40.1a1.043,1.043,0,0,1,1.13,1.06A1.041,1.041,0,0,1,40.1-3.53ZM50.34,0V-6.67H48.69L46.88-2.09,45.06-6.67H43.41V0h1.17V-5.15L46.63,0h.5l2.04-5.15V0Z" transform="translate(2748 624)"/></g></g><g transform="translate(-1229 2627)"><path class="m" d="M70.995,7.359a9.772,9.772,0,0,1,6.329,2.306L78.5,8.395a11.176,11.176,0,0,0-15-.009l1.174,1.272a9.771,9.771,0,0,1,6.321-2.3Zm0,3.666a5.939,5.939,0,0,1,3.8,1.366l1.245-1.344a7.722,7.722,0,0,0-10.092-.005l1.243,1.346a5.937,5.937,0,0,1,3.8-1.362Zm2.56,2.71a3.92,3.92,0,0,0-5.117,0L70.994,16.5l2.56-2.766Z" transform="translate(3686.5 221.5)"/><path class="m" d="M14.069.576A.588.588,0,0,1,14.662,0h1.745A.58.58,0,0,1,17,.576v9.849a.588.588,0,0,1-.593.576H14.662a.58.58,0,0,1-.593-.576Zm-4.69,2.9A.591.591,0,0,1,9.972,2.9h1.745a.594.594,0,0,1,.593.583v6.94a.591.591,0,0,1-.593.583H9.972a.594.594,0,0,1-.593-.583ZM4.69,5.787a.588.588,0,0,1,.593-.576H7.028a.579.579,0,0,1,.593.576v4.637A.588.588,0,0,1,7.028,11H5.283a.579.579,0,0,1-.593-.576ZM0,8.1a.587.587,0,0,1,.593-.574H2.338a.579.579,0,0,1,.593.574v2.327A.587.587,0,0,1,2.338,11H.593A.579.579,0,0,1,0,10.428Z" transform="translate(3727 227)"/><path class="m" d="M23,3.5a1.852,1.852,0,0,1,1.5,1.75A1.852,1.852,0,0,1,23,7Z" transform="translate(3768 227.5)"/><rect class="e" width="15" height="5.5" rx="1" transform="translate(3773 230)"/><g class="n" transform="translate(3771 228)"><rect class="z" width="19" height="9.5" rx="2.5"/><rect class="aa" x="0.5" y="0.5" width="18" height="8.5" rx="2"/></g><path class="e" d="M-11.041.256c2.644,0,4.189-2.1,4.189-5.684A7.1,7.1,0,0,0-7.5-8.643a3.668,3.668,0,0,0-3.472-2.183,3.615,3.615,0,0,0-3.831,3.691,3.39,3.39,0,0,0,3.479,3.523,2.951,2.951,0,0,0,2.769-1.6h.125C-8.463-2.666-9.408-1.2-11.027-1.2A1.946,1.946,0,0,1-13-2.593h-1.655A3.475,3.475,0,0,0-11.041.256ZM-10.968-5a2.107,2.107,0,0,1-2.2-2.19,2.166,2.166,0,0,1,2.219-2.19A2.177,2.177,0,0,1-8.741-7.156,2.121,2.121,0,0,1-10.968-5ZM-3.6-1.15A1.059,1.059,0,0,0-2.523-2.241,1.059,1.059,0,0,0-3.6-3.333,1.064,1.064,0,0,0-4.677-2.241,1.064,1.064,0,0,0-3.6-1.15Zm0-5.53A1.059,1.059,0,0,0-2.523-7.771,1.055,1.055,0,0,0-3.6-8.862,1.059,1.059,0,0,0-4.677-7.771,1.064,1.064,0,0,0-3.6-6.68ZM4.764,0H6.346V-2.043H7.8V-3.508H6.346v-7.061H4.01c-1.882,2.82-3.457,5.273-4.4,7v1.523H4.764ZM1.183-3.574C2.428-5.735,3.644-7.61,4.691-9.126h.1v5.654h-3.6ZM12.169,0H13.81V-10.569H12.177L9.393-8.606v1.677L12.045-8.8h.125Z" transform="translate(3483.396 238.436)"/></g></g></g><g transform="translate(-8169 -1039)"><g transform="translate(1010.92 2645)"><g transform="translate(0 0)"><g class="ae" transform="matrix(1, 0, 0, 1, -187.42, -283.5)"><path class="a" d="M50.027,0h271.2a50.027,50.027,0,0,1,50.027,50.027V704.771A50.027,50.027,0,0,1,321.228,754.8H50.027A50.027,50.027,0,0,1,0,704.771V50.027A50.027,50.027,0,0,1,50.027,0Z" transform="translate(190.05 283.5)"/></g><g transform="translate(373.011 164.125)"><path class="a" d="M0,0H2.388a2,2,0,0,1,2,2V82.257a2,2,0,0,1-2,2H0a0,0,0,0,1,0,0V0A0,0,0,0,1,0,0Z"/><path class="a" d="M0,0H2.388a2,2,0,0,1,2,2V82.257a2,2,0,0,1-2,2H0a0,0,0,0,1,0,0V0A0,0,0,0,1,0,0Z"/></g><g transform="translate(0 146.571)"><path class="a" d="M2,0H4.388a0,0,0,0,1,0,0V52.66a0,0,0,0,1,0,0H2a2,2,0,0,1-2-2V2A2,2,0,0,1,2,0Z" transform="translate(0 0)"/><path class="a" d="M0,0H2.388a2,2,0,0,1,2,2V50.66a2,2,0,0,1-2,2H0a0,0,0,0,1,0,0V0A0,0,0,0,1,0,0Z" transform="translate(4.388 52.66) rotate(180)"/></g><g transform="translate(0 215.03)"><path class="a" d="M2,0H4.388a0,0,0,0,1,0,0V52.66a0,0,0,0,1,0,0H2a2,2,0,0,1-2-2V2A2,2,0,0,1,2,0Z"/><path class="a" d="M0,0H2.388a2,2,0,0,1,2,2V50.66a2,2,0,0,1-2,2H0a0,0,0,0,1,0,0V0A0,0,0,0,1,0,0Z" transform="translate(4.388 52.66) rotate(180)"/></g><g transform="translate(0 91.278)"><path class="a" d="M1,0H4.388a0,0,0,0,1,0,0V28.086a0,0,0,0,1,0,0H1a1,1,0,0,1-1-1V1A1,1,0,0,1,1,0Z" transform="translate(0 0)"/><path class="a" d="M0,0H3.388a1,1,0,0,1,1,1V27.086a1,1,0,0,1-1,1H0a0,0,0,0,1,0,0V0A0,0,0,0,1,0,0Z" transform="translate(4.388 28.086) rotate(180)"/></g></g><ellipse class="b" cx="6.583" cy="6.583" rx="6.583" ry="6.583" transform="translate(226.439 21.942)"/><path class="b" d="M3.572.5H51.844a3.072,3.072,0,1,1,0,6.144H3.572A3.072,3.072,0,0,1,3.572.5Z" transform="translate(160.553 25.391)"/></g><g class="o" transform="translate(1034.549 2665.236)"><g transform="translate(0 -3.679)"><rect class="a" width="329.126" height="712.666"/><path class="e" d="M-50.977,0V-2.163h-7.14V-6.069h6.993V-8.232h-6.993v-3.612h7.14v-2.163h-9.6V0Zm11.361,0-3.738-5.208,3.507-4.935h-2.478L-44.74-6.72l-2.394-3.423h-2.478l3.507,4.935L-49.843,0h2.478l2.646-3.738L-42.094,0Zm9.954,0V-6.741c0-2.709-1.974-3.654-4.242-3.654a5.942,5.942,0,0,0-4.263,1.638l.924,1.533a4.061,4.061,0,0,1,3-1.3c1.386,0,2.373.714,2.373,1.89v1.512a4.239,4.239,0,0,0-3.3-1.3,3.254,3.254,0,0,0-3.507,3.318A3.377,3.377,0,0,0-35.164.252a4.27,4.27,0,0,0,3.3-1.365V0Zm-4.62-1.26a1.944,1.944,0,0,1-2.184-1.827,1.957,1.957,0,0,1,2.184-1.827,3.027,3.027,0,0,1,2.415,1.05V-2.31A3.027,3.027,0,0,1-34.282-1.26ZM-12.148,0V-7.329c0-2.058-1.071-3.066-2.919-3.066a4.277,4.277,0,0,0-3.444,1.848A2.65,2.65,0,0,0-21.283-10.4,4.493,4.493,0,0,0-24.6-8.778v-1.365h-2.2V0h2.2V-7.1a3.114,3.114,0,0,1,2.352-1.344c1.2,0,1.659.735,1.659,1.827V0h2.2V-7.1a3.019,3.019,0,0,1,2.352-1.344c1.2,0,1.68.735,1.68,1.827V0Zm8.316.252c2.625,0,4.494-2,4.494-5.334S-1.207-10.4-3.832-10.4A4.047,4.047,0,0,0-7.087-8.757v-1.386h-2.2V3.864h2.2V-1.407A4.069,4.069,0,0,0-3.832.252ZM-4.483-1.7a3.31,3.31,0,0,1-2.6-1.386V-7.1a3.305,3.305,0,0,1,2.6-1.344c1.743,0,2.877,1.386,2.877,3.36S-2.74-1.7-4.483-1.7ZM5.072,0V-14.007H2.867V0Zm7.56.252a6,6,0,0,0,4.116-1.491L15.74-2.688a4.265,4.265,0,0,1-2.9,1.134A3.067,3.067,0,0,1,9.629-4.347h7.812v-.546c0-3.192-1.932-5.5-4.977-5.5A5.127,5.127,0,0,0,7.319-5.082,5.088,5.088,0,0,0,12.632.252ZM15.32-5.922H9.608a2.775,2.775,0,0,1,2.835-2.667A2.73,2.73,0,0,1,15.32-5.922ZM37.727,0l-5.5-14.007H29.159L23.657,0H26.45l1.029-2.709H33.9L34.934,0ZM33.212-4.872h-5.04l2.52-6.678ZM44.636.252c2.625,0,4.494-2,4.494-5.334S47.261-10.4,44.636-10.4a4.047,4.047,0,0,0-3.255,1.638v-1.386h-2.2V3.864h2.2V-1.407A4.069,4.069,0,0,0,44.636.252ZM43.985-1.7a3.31,3.31,0,0,1-2.6-1.386V-7.1a3.305,3.305,0,0,1,2.6-1.344c1.743,0,2.877,1.386,2.877,3.36S45.728-1.7,43.985-1.7ZM56.795.252c2.625,0,4.494-2,4.494-5.334S59.42-10.4,56.795-10.4A4.047,4.047,0,0,0,53.54-8.757v-1.386h-2.2V3.864h2.2V-1.407A4.069,4.069,0,0,0,56.795.252ZM56.144-1.7a3.31,3.31,0,0,1-2.6-1.386V-7.1a3.305,3.305,0,0,1,2.6-1.344c1.743,0,2.877,1.386,2.877,3.36S57.887-1.7,56.144-1.7Z" transform="translate(94.194 69.047)"/><path class="e" d="M-4.983,0V-7.337H-6.1L-8.217-5.2l.748.781,1.2-1.254V0ZM-.8.132c2.057,0,2.926-1.958,2.926-3.8S1.254-7.447-.8-7.447-3.74-5.511-3.74-3.663-2.871.132-.8.132Zm0-1.144c-1.2,0-1.628-1.254-1.628-2.651S-2-6.3-.8-6.3.814-5.071.814-3.663.385-1.012-.8-1.012ZM8.305,0,6.061-2.9l2.2-2.409H6.831L4.488-2.75V-7.337H3.333V0H4.488V-1.43l.748-.77L6.853,0Z" transform="translate(44.521 298.266)"/><path class="e" d="M-4.747,0V-7.337H-5.868L-7.981-5.2l.748.781,1.2-1.254V0ZM-.93.132c1.7,0,2.772-.891,2.772-2.145A1.86,1.86,0,0,0,.137-3.8,1.773,1.773,0,0,0,1.721-5.478C1.721-6.7.666-7.447-.919-7.447A3.4,3.4,0,0,0-3.6-6.292l.66.8A2.545,2.545,0,0,1-1.04-6.3C-.226-6.3.445-5.951.445-5.28s-.649.968-1.518.968c-.286,0-.715,0-.836-.011v1.166c.11-.011.528-.022.836-.022,1.056,0,1.628.319,1.628,1.045,0,.671-.561,1.122-1.529,1.122A2.715,2.715,0,0,1-3-1.9l-.7.847A3.432,3.432,0,0,0-.93.132Zm9-.132L5.824-2.9l2.2-2.409H6.594L4.251-2.75V-7.337H3.1V0H4.251V-1.43L5-2.2,6.616,0Z" transform="translate(44.521 262.522)"/><path class="e" d="M-4.779,0V-7.337H-5.9L-8.013-5.2l.748.781,1.2-1.254V0ZM1.095,0V-1.661h.979V-2.794H1.095V-7.337H-.676L-3.69-2.7v1.034h3.5V0ZM-.192-2.794H-2.425L-.192-6.182ZM8.1,0,5.858-2.9l2.2-2.409H6.628L4.285-2.75V-7.337H3.13V0H4.285V-1.43l.748-.77L6.65,0Z" transform="translate(44.521 228.332)"/><path class="e" d="M-3.874.143c2.509,0,3.822-1.976,3.822-4.485,0-2.405-1.027-4.472-3.575-4.472A2.96,2.96,0,0,0-6.825-5.9a2.692,2.692,0,0,0,2.9,2.8A2.954,2.954,0,0,0-1.6-4.316a1.573,1.573,0,0,1,.013.247c0,1.417-.715,2.86-2.288,2.86a2.225,2.225,0,0,1-1.781-.767L-6.37-.819A3.47,3.47,0,0,0-3.874.143Zm.364-4.55c-.949,0-1.781-.481-1.781-1.547A1.606,1.606,0,0,1-3.549-7.462,1.98,1.98,0,0,1-1.612-5.434,2.376,2.376,0,0,1-3.51-4.407ZM7.241,0,4.589-3.432l2.6-2.847H5.5L2.73-3.25V-8.671H1.365V0H2.73V-1.69l.884-.91L5.525,0Z" transform="translate(48.96 335.009)"/><path class="e" d="M-42.905,2.9h2.726V.29c4.263-.435,6.38-2.929,6.38-6.148,0-3.973-3.364-5.133-6.38-5.887v-4a8.234,8.234,0,0,1,3.625,1.885l2.291-3.074a10.154,10.154,0,0,0-5.916-2.581v-2.755h-2.726v2.7c-3.915.406-6.235,2.9-6.235,5.829,0,3.944,3.248,5.075,6.235,5.8v4.5a8.49,8.49,0,0,1-4.611-2.494l-2.262,3.219A10.685,10.685,0,0,0-42.905.29ZM-38-5.452c0,.928-.7,1.769-2.175,2.059V-7.279C-38.9-6.873-38-6.409-38-5.452Zm-6.9-8.613c0-.986.725-1.682,2-1.856v3.509C-44.094-12.789-44.906-13.224-44.906-14.065ZM-22.837,0V-19.343h-3.6l-6.09,6.119,2.349,2.465,3.219-3.277V0Zm10.788.348c4.669,0,7.743-2.61,7.743-6.7a6.046,6.046,0,0,0-6.206-6.264,6.134,6.134,0,0,0-4.263,1.624v-4.727h9.164v-3.625H-18.893V-8.265l2.871.783a5.55,5.55,0,0,1,4.06-1.566c2.2,0,3.48,1.16,3.48,2.871,0,1.566-1.305,2.871-3.6,2.871a6.974,6.974,0,0,1-5.133-2.117L-19.5-2.552A9.649,9.649,0,0,0-12.049.348ZM5.7.348c5.539,0,8-5.017,8-10.005s-2.465-9.976-8-9.976-8,4.988-8,9.976S.159.348,5.7.348Zm0-3.654c-2.755,0-3.8-2.784-3.8-6.351s1.044-6.322,3.8-6.322c2.784,0,3.8,2.755,3.8,6.322S8.454-3.306,5.7-3.306ZM23.678.348c5.539,0,8-5.017,8-10.005s-2.465-9.976-8-9.976-8,4.988-8,9.976S18.139.348,23.678.348Zm0-3.654c-2.755,0-3.8-2.784-3.8-6.351s1.044-6.322,3.8-6.322c2.784,0,3.8,2.755,3.8,6.322S26.434-3.306,23.678-3.306ZM41.659.348c5.539,0,8-5.017,8-10.005s-2.465-9.976-8-9.976-8,4.988-8,9.976S36.12.348,41.659.348Zm0-3.654c-2.755,0-3.8-2.784-3.8-6.351s1.044-6.322,3.8-6.322c2.784,0,3.8,2.755,3.8,6.322S44.414-3.306,41.659-3.306Z" transform="translate(83.194 115.675)"/><path class="e" d="M-82.854,0V-4.7h1.176V-5.8h-1.176V-6.12c0-.648.3-.972.8-.972a.935.935,0,0,1,.66.252l.492-.78a1.854,1.854,0,0,0-1.392-.5,1.786,1.786,0,0,0-1.824,2V-5.8h-.96V-4.7h.96V0Zm4.764.144A2.9,2.9,0,0,0-75.114-2.9,2.888,2.888,0,0,0-78.09-5.94,2.888,2.888,0,0,0-81.066-2.9,2.9,2.9,0,0,0-78.09.144Zm0-1.116A1.742,1.742,0,0,1-79.758-2.9a1.738,1.738,0,0,1,1.668-1.92A1.731,1.731,0,0,1-76.422-2.9,1.735,1.735,0,0,1-78.09-.972ZM-72.57,0V-3.948a1.978,1.978,0,0,1,1.5-.78,1.739,1.739,0,0,1,.384.036V-5.94a2.515,2.515,0,0,0-1.884.984V-5.8h-1.26V0Zm14.376,0V-4.188A1.532,1.532,0,0,0-59.862-5.94,2.444,2.444,0,0,0-61.83-4.884,1.514,1.514,0,0,0-63.414-5.94a2.567,2.567,0,0,0-1.9.924V-5.8h-1.26V0h1.26V-4.056a1.779,1.779,0,0,1,1.344-.768c.684,0,.948.42.948,1.044V0h1.26V-4.056a1.725,1.725,0,0,1,1.344-.768c.684,0,.96.42.96,1.044V0Zm4.26.144A2.9,2.9,0,0,0-50.958-2.9,2.888,2.888,0,0,0-53.934-5.94,2.888,2.888,0,0,0-56.91-2.9,2.9,2.9,0,0,0-53.934.144Zm0-1.116A1.742,1.742,0,0,1-55.6-2.9a1.738,1.738,0,0,1,1.668-1.92A1.731,1.731,0,0,1-52.266-2.9,1.735,1.735,0,0,1-53.934-.972Zm5.52.972V-3.948a1.978,1.978,0,0,1,1.5-.78,1.739,1.739,0,0,1,.384.036V-5.94a2.515,2.515,0,0,0-1.884.984V-5.8h-1.26V0Zm5.592.144A3.429,3.429,0,0,0-40.47-.708l-.576-.828A2.437,2.437,0,0,1-42.7-.888a1.752,1.752,0,0,1-1.836-1.6h4.464V-2.8A2.853,2.853,0,0,0-42.918-5.94,2.929,2.929,0,0,0-45.858-2.9,2.907,2.907,0,0,0-42.822.144Zm1.536-3.528H-44.55a1.586,1.586,0,0,1,1.62-1.524A1.56,1.56,0,0,1-41.286-3.384ZM-34.47,0V-8h-1.26V0Zm4.26.144A2.9,2.9,0,0,0-27.234-2.9,2.888,2.888,0,0,0-30.21-5.94,2.888,2.888,0,0,0-33.186-2.9,2.9,2.9,0,0,0-30.21.144Zm0-1.116A1.742,1.742,0,0,1-31.878-2.9a1.738,1.738,0,0,1,1.668-1.92A1.731,1.731,0,0,1-28.542-2.9,1.735,1.735,0,0,1-30.21-.972Zm6.624,3.324c1.416,0,2.976-.564,2.976-2.652V-5.8h-1.26v.8a2.276,2.276,0,0,0-1.86-.948c-1.5,0-2.568,1.092-2.568,2.976,0,1.908,1.092,2.976,2.568,2.976A2.33,2.33,0,0,0-21.87-.96V-.3a1.535,1.535,0,0,1-1.716,1.62A2.287,2.287,0,0,1-25.434.576l-.588.912A3.317,3.317,0,0,0-23.586,2.352Zm.228-3.468A1.642,1.642,0,0,1-25-2.964a1.652,1.652,0,0,1,1.644-1.86,1.924,1.924,0,0,1,1.488.768v2.172A1.924,1.924,0,0,1-23.358-1.116Zm10.1,1.26A2.9,2.9,0,0,0-10.278-2.9,2.888,2.888,0,0,0-13.254-5.94,2.888,2.888,0,0,0-16.23-2.9,2.9,2.9,0,0,0-13.254.144Zm0-1.116A1.742,1.742,0,0,1-14.922-2.9a1.738,1.738,0,0,1,1.668-1.92A1.731,1.731,0,0,1-11.586-2.9,1.735,1.735,0,0,1-13.254-.972ZM-3.81,0V-4.08A1.671,1.671,0,0,0-5.682-5.94a2.764,2.764,0,0,0-2.052.924V-5.8h-1.26V0h1.26V-4.056a1.975,1.975,0,0,1,1.488-.768c.708,0,1.176.288,1.176,1.2V0ZM2.67.144A1.707,1.707,0,0,0,3.846-.228l-.3-.96a.784.784,0,0,1-.552.216c-.36,0-.552-.3-.552-.7V-4.7H3.618V-5.8H2.442V-7.38H1.182V-5.8H.222V-4.7h.96v3.348A1.335,1.335,0,0,0,2.67.144Zm4.7,0A2.9,2.9,0,0,0,10.35-2.9,2.888,2.888,0,0,0,7.374-5.94,2.888,2.888,0,0,0,4.4-2.9,2.9,2.9,0,0,0,7.374.144Zm0-1.116A1.742,1.742,0,0,1,5.706-2.9a1.738,1.738,0,0,1,1.668-1.92A1.731,1.731,0,0,1,9.042-2.9,1.735,1.735,0,0,1,7.374-.972ZM17.418.144A3.429,3.429,0,0,0,19.77-.708l-.576-.828a2.437,2.437,0,0,1-1.656.648,1.752,1.752,0,0,1-1.836-1.6h4.464V-2.8A2.853,2.853,0,0,0,17.322-5.94,2.929,2.929,0,0,0,14.382-2.9,2.907,2.907,0,0,0,17.418.144Zm1.536-3.528H15.69a1.586,1.586,0,0,1,1.62-1.524A1.56,1.56,0,0,1,18.954-3.384ZM26.5,0,24.366-2.976l2-2.82H24.954L23.574-3.84,22.206-5.8H20.79l2,2.82L20.658,0h1.416l1.512-2.136L25.086,0ZM32.19,0V-3.852c0-1.548-1.128-2.088-2.424-2.088A3.4,3.4,0,0,0,27.33-5l.528.876a2.321,2.321,0,0,1,1.716-.744c.792,0,1.356.408,1.356,1.08v.864a2.422,2.422,0,0,0-1.884-.744,1.859,1.859,0,0,0-2,1.9,1.93,1.93,0,0,0,2,1.92,2.44,2.44,0,0,0,1.884-.78V0ZM29.55-.72A1.111,1.111,0,0,1,28.3-1.764,1.118,1.118,0,0,1,29.55-2.808a1.73,1.73,0,0,1,1.38.6v.888A1.73,1.73,0,0,1,29.55-.72ZM42.2,0V-4.188A1.532,1.532,0,0,0,40.53-5.94a2.444,2.444,0,0,0-1.968,1.056A1.514,1.514,0,0,0,36.978-5.94a2.567,2.567,0,0,0-1.9.924V-5.8h-1.26V0h1.26V-4.056a1.779,1.779,0,0,1,1.344-.768c.684,0,.948.42.948,1.044V0h1.26V-4.056a1.725,1.725,0,0,1,1.344-.768c.684,0,.96.42.96,1.044V0ZM46.95.144c1.5,0,2.568-1.14,2.568-3.048S48.45-5.94,46.95-5.94A2.313,2.313,0,0,0,45.09-5V-5.8H43.83v8h1.26V-.8A2.325,2.325,0,0,0,46.95.144ZM46.578-.972a1.891,1.891,0,0,1-1.488-.792V-4.056a1.889,1.889,0,0,1,1.488-.768A1.7,1.7,0,0,1,48.222-2.9,1.716,1.716,0,0,1,46.578-.972ZM52.038,0V-8h-1.26V0Zm4.32.144A3.429,3.429,0,0,0,58.71-.708l-.576-.828a2.437,2.437,0,0,1-1.656.648,1.752,1.752,0,0,1-1.836-1.6h4.464V-2.8A2.853,2.853,0,0,0,56.262-5.94,2.929,2.929,0,0,0,53.322-2.9,2.907,2.907,0,0,0,56.358.144Zm1.536-3.528H54.63a1.586,1.586,0,0,1,1.62-1.524A1.56,1.56,0,0,1,57.894-3.384ZM60.954.132a.861.861,0,0,0,.84-.852.848.848,0,0,0-.84-.828.848.848,0,0,0-.84.828A.861.861,0,0,0,60.954.132Zm4.872.012a2.613,2.613,0,0,0,2.22-1.032l-.828-.78a1.558,1.558,0,0,1-1.332.7A1.766,1.766,0,0,1,64.134-2.9a1.756,1.756,0,0,1,1.752-1.92,1.537,1.537,0,0,1,1.332.672l.828-.756a2.583,2.583,0,0,0-2.22-1.032A2.906,2.906,0,0,0,62.838-2.9,2.916,2.916,0,0,0,65.826.144Zm5.964,0A2.9,2.9,0,0,0,74.766-2.9,2.888,2.888,0,0,0,71.79-5.94,2.888,2.888,0,0,0,68.814-2.9,2.9,2.9,0,0,0,71.79.144Zm0-1.116A1.742,1.742,0,0,1,70.122-2.9a1.738,1.738,0,0,1,1.668-1.92A1.731,1.731,0,0,1,73.458-2.9,1.735,1.735,0,0,1,71.79-.972ZM84.426,0V-4.188A1.532,1.532,0,0,0,82.758-5.94,2.444,2.444,0,0,0,80.79-4.884,1.514,1.514,0,0,0,79.206-5.94a2.567,2.567,0,0,0-1.9.924V-5.8H76.05V0h1.26V-4.056a1.779,1.779,0,0,1,1.344-.768c.684,0,.948.42.948,1.044V0h1.26V-4.056a1.725,1.725,0,0,1,1.344-.768c.684,0,.96.42.96,1.044V0Z" transform="translate(216.412 365.582)"/><path class="p" d="M69.289,6.936a7.548,7.548,0,0,1,4.888,1.781l.909-.981A8.632,8.632,0,0,0,63.5,7.729l.907.982a7.547,7.547,0,0,1,4.882-1.775Zm0,2.832a4.587,4.587,0,0,1,2.939,1.055l.961-1.038a5.964,5.964,0,0,0-7.8,0l.96,1.04a4.585,4.585,0,0,1,2.935-1.052Zm1.977,2.093a3.028,3.028,0,0,0-3.953,0L69.288,14l1.977-2.136Z" transform="translate(220.084 7.367)"/><path class="p" d="M10,.434A.43.43,0,0,1,10.421,0h1.24a.424.424,0,0,1,.422.434V7.85a.43.43,0,0,1-.422.434h-1.24A.424.424,0,0,1,10,7.85ZM6.666,2.619a.433.433,0,0,1,.422-.439h1.24a.435.435,0,0,1,.422.439V7.845a.433.433,0,0,1-.422.439H7.088a.435.435,0,0,1-.422-.439ZM3.333,4.358a.43.43,0,0,1,.422-.434h1.24a.424.424,0,0,1,.422.434V7.85a.43.43,0,0,1-.422.434H3.755a.424.424,0,0,1-.422-.434ZM0,6.1a.429.429,0,0,1,.422-.432h1.24a.424.424,0,0,1,.422.432V7.852a.429.429,0,0,1-.422.432H.422A.424.424,0,0,1,0,7.852Z" transform="translate(266.365 12.739)"/><g transform="translate(300.665 14.544)"><path class="p" d="M23,3.5a1.088,1.088,0,0,1,.881,1.028A1.088,1.088,0,0,1,23,5.556Z" transform="translate(-11.251 -1.738)"/><rect width="5.132" height="3.231" rx="0.5" transform="translate(1.175 1.175)"/><g class="q" transform="translate(0 0)"><rect class="z" width="11.161" height="5.581" rx="1"/><rect class="aa" x="0.25" y="0.25" width="10.661" height="5.081" rx="0.75"/></g></g><path d="M-12.227,0h1.2V-7.75h-1.2l-2.041,1.439v1.23l1.944-1.375h.091Zm3.389-5.511v.016H-7.7v-.016A1.334,1.334,0,0,1-6.271-6.9,1.3,1.3,0,0,1-4.864-5.656c0,.569-.252.978-1.289,2.057L-8.774-.87V0h5.221V-1.08H-7.1v-.091l1.724-1.746c1.3-1.316,1.7-1.987,1.7-2.809A2.332,2.332,0,0,0-6.233-7.938,2.417,2.417,0,0,0-8.838-5.511ZM-1.077-.843a.777.777,0,0,0,.79-.8.777.777,0,0,0-.79-.8.78.78,0,0,0-.79.8A.78.78,0,0,0-1.077-.843Zm0-4.055a.777.777,0,0,0,.79-.8.774.774,0,0,0-.79-.8.777.777,0,0,0-.79.8A.78.78,0,0,0-1.077-4.9ZM4.321.188a2.612,2.612,0,0,0,2.8-2.7,2.45,2.45,0,0,0-2.508-2.6,1.957,1.957,0,0,0-1.638.7H2.887l.2-2.272H6.674V-7.75H2.151L1.743-3.314h1.1a1.688,1.688,0,0,1,1.5-.795,1.54,1.54,0,0,1,1.6,1.633A1.522,1.522,0,0,1,4.332-.87,1.463,1.463,0,0,1,2.763-2.122H1.619A2.486,2.486,0,0,0,4.321.188Zm7.036,0c1.8,0,2.857-1.488,2.857-4.061s-1.069-4.066-2.857-4.066S8.489-6.445,8.489-3.883C8.489-1.305,9.547.188,11.357.188Zm0-1.053C10.3-.865,9.7-1.923,9.7-3.883c0-1.939.612-3,1.654-3S13-5.828,13-3.883C13-1.917,12.41-.865,11.357-.865Z" transform="translate(42.402 20.037)"/><g transform="translate(40.406 361.53)"><ellipse class="e" cx="2.331" cy="2.331" rx="2.331" ry="2.331" transform="translate(0)"/><ellipse class="e" cx="2.331" cy="2.331" rx="2.331" ry="2.331" transform="translate(6.993)"/><ellipse class="e" cx="2.331" cy="2.331" rx="2.331" ry="2.331" transform="translate(13.987)"/></g><path class="e" d="M-5.773-2.736v-.6H-7.438V-5.148H-8.1v1.809H-9.769v.6H-8.1V-.864h.666V-2.736ZM-2.731,0V-6h-.918L-5.377-4.257l.612.639.981-1.026V0ZM.644.108a2.062,2.062,0,0,0,2.3-2.034A1.858,1.858,0,0,0,1.013-3.861a2.011,2.011,0,0,0-1.359.513V-5.076h2.88V-6H-1.4v3.348l.747.216A1.826,1.826,0,0,1,.662-2.952,1.069,1.069,0,0,1,1.868-1.89,1.1,1.1,0,0,1,.635-.828a2.031,2.031,0,0,1-1.611-.72l-.6.729A2.764,2.764,0,0,0,.644.108Zm4.41-3.222A1.434,1.434,0,0,0,6.548-4.6,1.437,1.437,0,0,0,5.054-6.093,1.442,1.442,0,0,0,3.559-4.6,1.44,1.44,0,0,0,5.054-3.114ZM5.071,0,8.915-6H8.3L4.469,0ZM8.285.108A1.44,1.44,0,0,0,9.778-1.377,1.442,1.442,0,0,0,8.285-2.871,1.442,1.442,0,0,0,6.791-1.377,1.44,1.44,0,0,0,8.285.108ZM5.054-3.717A.807.807,0,0,1,4.261-4.6a.818.818,0,0,1,.792-.9.819.819,0,0,1,.8.9A.808.808,0,0,1,5.054-3.717ZM8.285-.5a.808.808,0,0,1-.8-.882.819.819,0,0,1,.8-.9.819.819,0,0,1,.8.9A.808.808,0,0,1,8.285-.5Z" transform="translate(274.969 162.353)"/><path class="e" d="M-7.659-1.773v-.81h-2.16v.81ZM-2.592,0V-.927H-5.247c1.6-1.215,2.619-2.205,2.619-3.321A1.935,1.935,0,0,0-4.8-6.093,2.853,2.853,0,0,0-7.02-5.13l.612.684a2.092,2.092,0,0,1,1.62-.711c.549,0,1.1.279,1.1.909,0,.873-.918,1.647-3.249,3.411V0ZM.7.108A2.062,2.062,0,0,0,3-1.926,1.858,1.858,0,0,0,1.071-3.861a2.011,2.011,0,0,0-1.359.513V-5.076h2.88V-6H-1.341v3.348l.747.216A1.826,1.826,0,0,1,.72-2.952,1.069,1.069,0,0,1,1.926-1.89,1.1,1.1,0,0,1,.693-.828a2.031,2.031,0,0,1-1.611-.72l-.6.729A2.764,2.764,0,0,0,.7.108Zm4.41-3.222A1.434,1.434,0,0,0,6.606-4.6,1.437,1.437,0,0,0,5.112-6.093,1.442,1.442,0,0,0,3.618-4.6,1.44,1.44,0,0,0,5.112-3.114ZM5.13,0,8.973-6H8.361L4.527,0ZM8.343.108A1.44,1.44,0,0,0,9.837-1.377,1.442,1.442,0,0,0,8.343-2.871,1.442,1.442,0,0,0,6.849-1.377,1.44,1.44,0,0,0,8.343.108ZM5.112-3.717A.807.807,0,0,1,4.32-4.6a.818.818,0,0,1,.792-.9.819.819,0,0,1,.8.9A.808.808,0,0,1,5.112-3.717ZM8.343-.5a.808.808,0,0,1-.8-.882.819.819,0,0,1,.8-.9.819.819,0,0,1,.8.9A.808.808,0,0,1,8.343-.5Z" transform="translate(157.637 250.935)"/><path class="r" d="M4.56-5.177A.909.909,0,0,0,4.307-5.8L-.141-10.247A.879.879,0,0,0-.763-10.5a.851.851,0,0,0-.615.253L-5.826-5.8a.885.885,0,0,0-.26.622.869.869,0,0,0,.26.615l.512.512a.858.858,0,0,0,.615.26.858.858,0,0,0,.615-.26l2.009-2v4.81a.819.819,0,0,0,.875.8h.875a.819.819,0,0,0,.875-.8v-4.81l2.009,2a.858.858,0,0,0,.615.26.885.885,0,0,0,.622-.26l.512-.512A.892.892,0,0,0,4.56-5.177Z" transform="translate(293.94 156.115)"/><path class="s" d="M10.646,5.323a.909.909,0,0,0-.253-.622L5.945.253A.879.879,0,0,0,5.323,0a.851.851,0,0,0-.615.253L.26,4.7A.885.885,0,0,0,0,5.323a.869.869,0,0,0,.26.615l.512.512A.858.858,0,0,0,2,6.45l2.009-2v4.81a.819.819,0,0,0,.875.8H5.76a.819.819,0,0,0,.875-.8V4.448l2.009,2a.858.858,0,0,0,.615.26.885.885,0,0,0,.622-.26l.512-.512A.892.892,0,0,0,10.646,5.323Z" transform="translate(181.944 262.126) rotate(180)"/><line class="t" x2="328.686" transform="translate(0.389 243.032)"/><line class="t" x2="328.686" transform="translate(0.389 278.776)"/><line class="t" x2="328.686" transform="translate(0.389 314.519)"/><line class="t" x2="328.686" transform="translate(0.389 350.263)"/><g class="u" transform="translate(0 125.88)"><path class="v" d="M0,44.106S75.342-6.305,114.714,38.774s40.345,88.7,89.438,74.647S273.176,4.844,333.935,38.774s29.651-75.132,58.815-25.69" transform="matrix(0.985, -0.174, 0.174, 0.985, -36.158, 68.522)"/><g class="w" transform="translate(209.8 300.921)"><ellipse class="z" cx="119.664" cy="119.664" rx="119.664" ry="119.664"/><ellipse class="aa" cx="119.664" cy="119.664" rx="97.664" ry="97.664"/></g></g><path class="x" d="M-4.621-34.3c0-2.437-2.1-3.256-3.964-3.974-1.436-.556-2.67-1.031-2.67-2.1,0-.92.89-1.557,2.174-1.557a4.652,4.652,0,0,1,2.75,1.092.334.334,0,0,0,.273.071.3.3,0,0,0,.233-.162l.819-1.476a.324.324,0,0,0-.051-.384,5.48,5.48,0,0,0-3.185-1.385v-1.78a.319.319,0,0,0-.324-.324H-9.93a.326.326,0,0,0-.324.324v1.82a4.04,4.04,0,0,0-3.57,3.8c0,2.538,2.265,3.448,4.085,4.166,1.365.546,2.558,1.021,2.558,1.992,0,1.143-1.072,1.668-2.063,1.668a5.308,5.308,0,0,1-3.226-1.365.275.275,0,0,0-.243-.091.33.33,0,0,0-.233.121l-1.042,1.365a.335.335,0,0,0,.02.415,6.4,6.4,0,0,0,3.711,1.81v1.77a.326.326,0,0,0,.324.324h1.365a.319.319,0,0,0,.324-.324v-1.77A4.1,4.1,0,0,0-4.621-34.3Z" transform="translate(271.391 506.541)"/><path class="x" d="M-6.777-24.119a2.7,2.7,0,0,1-2.7,2.7,2.7,2.7,0,0,1-2.7-2.7,2.7,2.7,0,0,1,2.7-2.7A2.7,2.7,0,0,1-6.777-24.119Zm5.4-1.149a.385.385,0,0,0-.306-.379l-1.929-.3a5.807,5.807,0,0,0-.432-1.033c.358-.5.748-.959,1.107-1.444a.4.4,0,0,0,.084-.242.359.359,0,0,0-.074-.232,13.3,13.3,0,0,0-1.739-1.792.416.416,0,0,0-.264-.105.359.359,0,0,0-.253.095l-1.5,1.128a6.19,6.19,0,0,0-.949-.39l-.3-1.94a.377.377,0,0,0-.379-.316h-2.34a.386.386,0,0,0-.379.3,13.782,13.782,0,0,0-.306,1.961,6.357,6.357,0,0,0-.959.4l-1.455-1.128a.469.469,0,0,0-.274-.105c-.358,0-1.781,1.539-2.034,1.887a.409.409,0,0,0-.095.242.389.389,0,0,0,.105.253c.39.474.77.949,1.128,1.455a5.577,5.577,0,0,0-.411.97l-1.961.3a.409.409,0,0,0-.285.379v2.34a.385.385,0,0,0,.306.379l1.929.285a5.592,5.592,0,0,0,.432,1.044c-.358.5-.748.959-1.107,1.444a.4.4,0,0,0-.084.242.41.41,0,0,0,.074.242,13.145,13.145,0,0,0,1.739,1.771.377.377,0,0,0,.264.116.4.4,0,0,0,.264-.095l1.486-1.128a6.189,6.189,0,0,0,.949.39l.3,1.94a.377.377,0,0,0,.379.316h2.34a.386.386,0,0,0,.379-.3,13.782,13.782,0,0,0,.306-1.961,6.357,6.357,0,0,0,.959-.4l1.455,1.138a.536.536,0,0,0,.274.095c.358,0,1.781-1.55,2.034-1.887a.352.352,0,0,0,.095-.242.416.416,0,0,0-.105-.264c-.39-.474-.77-.938-1.128-1.455a5.972,5.972,0,0,0,.411-.959l1.95-.3a.4.4,0,0,0,.3-.379Z" transform="translate(316.731 469.069)"/><path class="x" d="M-3.2-28.78a1.03,1.03,0,0,1-1.03,1.03,1.03,1.03,0,0,1-1.03-1.03,1.03,1.03,0,0,1,1.03-1.03A1.03,1.03,0,0,1-3.2-28.78Zm2.4-3.091a.358.358,0,0,0-.365-.343,10.308,10.308,0,0,0-8.467,3.531c-.612.622-1.245,1.331-1.889,2.093l-4.067.215a.392.392,0,0,0-.279.172l-2.4,4.121a.36.36,0,0,0,.054.419l.687.687a.358.358,0,0,0,.247.1.3.3,0,0,0,.1-.011l2.962-.912L-11.2-18.79l-.912,2.962a.371.371,0,0,0,.086.343l.687.687a.378.378,0,0,0,.247.1.315.315,0,0,0,.172-.043l4.121-2.4a.392.392,0,0,0,.172-.279l.215-4.067c.762-.644,1.47-1.277,2.093-1.889A10.811,10.811,0,0,0-.792-31.871Z" transform="translate(315.912 671.291)"/><path class="x" d="M-17.844-25.512h-2.234v4.468h2.234Zm3.351-4.468h-2.234v8.936h2.234Zm8.936,10.053H-22.312V-32.214h-1.117v13.4H-5.557Zm-5.585-7.819h-2.234v6.7h2.234ZM-7.791-31.1h-2.234v10.053h2.234Z" transform="translate(272.857 644.519)"/><g transform="translate(195.813 508.39)"><g class="ad" transform="matrix(1, 0, 0, 1, -406.86, -808.45)"><ellipse class="a" cx="33.024" cy="33.024" rx="33.024" ry="33.024" transform="translate(406.86 808.45)"/></g><path class="y" d="M-10.175-46.286A16.821,16.821,0,0,0-27-29.461,16.821,16.821,0,0,0-10.175-12.636,16.821,16.821,0,0,0,6.649-29.461,16.821,16.821,0,0,0-10.175-46.286Zm0,2.4A14.5,14.5,0,0,1-3.4-42.192l-3.643,3.643a9.639,9.639,0,0,0-3.136-.526,9.725,9.725,0,0,0-3.136.526l-3.643-3.643A14.5,14.5,0,0,1-10.175-43.882Zm-12.731,21.2a14.5,14.5,0,0,1-1.69-6.779,14.5,14.5,0,0,1,1.69-6.779l3.643,3.643a9.639,9.639,0,0,0-.526,3.136,9.724,9.724,0,0,0,.526,3.136Zm12.731,7.642a14.5,14.5,0,0,1-6.779-1.69l3.643-3.643a9.724,9.724,0,0,0,3.136.526,9.639,9.639,0,0,0,3.136-.526L-3.4-16.73A14.5,14.5,0,0,1-10.175-15.04Zm0-7.211a7.212,7.212,0,0,1-7.211-7.211,7.212,7.212,0,0,1,7.211-7.211,7.212,7.212,0,0,1,7.211,7.211A7.212,7.212,0,0,1-10.175-22.25Zm9.088-4.075a9.724,9.724,0,0,0,.526-3.136A9.724,9.724,0,0,0-1.087-32.6L2.556-36.24a14.5,14.5,0,0,1,1.69,6.779,14.5,14.5,0,0,1-1.69,6.779Z" transform="translate(43.318 62.603)"/></g></g></g><g class="ac" transform="matrix(1, 0, 0, 1, 823.5, 2361.5)"><rect class="a" width="242.836" height="55.19" rx="8" transform="translate(148.5 821.6)"/></g><g class="ab" transform="matrix(1, 0, 0, 1, 823.5, 2361.5)"><rect class="a" width="14.717" height="14.717" rx="2" transform="translate(388.58 839.08) rotate(45)"/></g><path class="e" d="M-81.03.2c3.043,0,4.539-1.564,4.539-3.638C-76.491-7.667-83-6.46-83-8.245c0-.68.578-1.122,1.6-1.122a4.871,4.871,0,0,1,3.3,1.241l1.343-1.8a6.307,6.307,0,0,0-4.42-1.581c-2.669,0-4.3,1.564-4.3,3.451,0,4.267,6.528,2.89,6.528,4.862,0,.663-.629,1.258-1.972,1.258a4.982,4.982,0,0,1-3.6-1.547L-85.858-1.6A6.548,6.548,0,0,0-81.03.2Zm11.271,0c3.451,0,5.117-1.938,5.117-4.743v-6.8h-2.465v6.732a2.444,2.444,0,0,1-2.652,2.669,2.457,2.457,0,0,1-2.669-2.669v-6.732h-2.448v6.8C-74.876-1.734-73.21.2-69.759.2Zm9.775-.2V-4.046h2.89a3.544,3.544,0,0,0,3.808-3.638,3.538,3.538,0,0,0-3.808-3.655h-5.3V0Zm2.55-6.171h-2.55V-9.214h2.55a1.534,1.534,0,0,1,1.683,1.53A1.531,1.531,0,0,1-57.434-6.171ZM-49.359,0V-4.046h2.89a3.544,3.544,0,0,0,3.808-3.638,3.538,3.538,0,0,0-3.808-3.655h-5.3V0Zm2.55-6.171h-2.55V-9.214h2.55a1.534,1.534,0,0,1,1.683,1.53A1.531,1.531,0,0,1-46.809-6.171ZM-35.759.2a5.693,5.693,0,0,0,5.916-5.865,5.693,5.693,0,0,0-5.916-5.865,5.7,5.7,0,0,0-5.933,5.865A5.7,5.7,0,0,0-35.759.2Zm0-2.142A3.442,3.442,0,0,1-39.21-5.661a3.432,3.432,0,0,1,3.451-3.723,3.429,3.429,0,0,1,3.434,3.723A3.438,3.438,0,0,1-35.759-1.938ZM-18.946,0l-2.567-4.318a3.28,3.28,0,0,0,2.5-3.366,3.545,3.545,0,0,0-3.825-3.655h-5.3V0h2.414V-4.029h1.768L-21.734,0Zm-4.233-6.154h-2.55v-3.06h2.55A1.531,1.531,0,0,1-21.5-7.7,1.537,1.537,0,0,1-23.179-6.154ZM-12.333,0V-9.214h3.3v-2.125h-9.044v2.125h3.315V0Zm5.287.34,4.029-12.019H-4.581L-8.61.34ZM8.3,0V-11.339H5.874v4.454H.519v-4.454H-1.9V0H.519V-4.777H5.874V0ZM18.556,0V-2.125h-5.61V-4.709h5.491V-6.834H12.946v-2.38h5.61v-2.125H10.532V0Zm9.01,0V-2.125H22.772v-9.214H20.341V0Zm4.046,0V-4.046H34.5A3.544,3.544,0,0,0,38.31-7.684,3.538,3.538,0,0,0,34.5-11.339H29.2V0Zm2.55-6.171h-2.55V-9.214h2.55a1.534,1.534,0,0,1,1.683,1.53A1.531,1.531,0,0,1,34.162-6.171ZM48.68,0c3.536,0,6-2.244,6-5.678,0-3.4-2.465-5.661-6.018-5.661H44.192V0Zm-.017-2.125H46.606V-9.214H48.68a3.309,3.309,0,0,1,3.536,3.536A3.4,3.4,0,0,1,48.663-2.125ZM64.422,0V-2.125h-5.61V-4.709H64.3V-6.834H58.812v-2.38h5.61v-2.125H56.4V0Zm5.933.2C73.4.2,74.894-1.36,74.894-3.434c0-4.233-6.511-3.026-6.511-4.811,0-.68.578-1.122,1.6-1.122a4.871,4.871,0,0,1,3.3,1.241l1.343-1.8a6.307,6.307,0,0,0-4.42-1.581c-2.669,0-4.3,1.564-4.3,3.451,0,4.267,6.528,2.89,6.528,4.862,0,.663-.629,1.258-1.972,1.258a4.982,4.982,0,0,1-3.6-1.547L65.526-1.6A6.548,6.548,0,0,0,70.354.2ZM86.215,0,81.4-6.018l4.505-5.321H82.935L78.923-6.29v-5.049H76.508V0h2.414V-3.485l.884-1.071L83.24,0Z" transform="translate(1078.236 3214.5)"/></g></g></svg>